<svg xmlns="http://www.w3.org/2000/svg" enable-background="new 0 0 3000 3000" viewBox="0 0 3000 3000" id="couple-dance-party"><ellipse cx="1500" cy="2538.08" fill="#f4f1ea" rx="1127.62" ry="57.41"></ellipse><path fill="#47271f" d="M1204.68 1670.42s286.58 210.32 322.25 321.13c35.67 110.81-231.18 234.6-231.18 234.6l-91.07-555.73z"></path><path fill="#f4caba" d="m2003.15 1686.3 80.16 242.73 245.82-252.09 28.54 21.13s-186.57 432.31-295.32 420.64c-108.75-11.67-239.5-338.14-239.5-338.14l180.3-94.27z"></path><path fill="#e8ad80" d="M1954.63 2007.58c-.87-15.32-.57-31.57 4.81-46.13 2.27-6.16 5.64-12 10.51-16.48 4.99-4.59 11.29-7.3 17.97-8.27 9.25-1.35 19.24-.8 26.61 5.07 47.57 37.88 68.78-12.74 68.78-12.74l-80.16-242.73-180.3 94.27s61.14 152.65 134.58 252.92c-1.32-8.59-2.31-17.23-2.8-25.91z" opacity=".35"></path><path fill="#f4caba" d="m1814.96 1845.27-91.71 143.9 124.87 418.19-29.77 10.29s-255.78-346.22-253.42-452.25c2.36-106.03 88.2-199.42 88.2-199.42l161.83 79.29z"></path><path fill="#e8ad80" d="m1723.25 1989.18 91.71-143.9-161.84-79.28s-51.14 55.64-75.56 129.79c5.01 11.99 15.86 21.33 26.08 28.83 14.42 10.59 30.23 19.05 44.86 29.32 6.34 4.45 12.55 9.26 17.66 15.12 6.83 7.82 11.4 17.86 12.57 28.18 1.29 11.35-1.42 22.59-3.22 33.72-1.72 10.58-3.35 22.03.98 32.19 3.43 8.06 9.7 14.55 16.24 20.18 7.24 6.24 15.11 11.68 22.66 17.53 7.11 5.51 14.1 11.41 19.56 18.61 6.39 8.41 9.31 18.38 11.1 28.69 2.41 13.85 2.13 27.97 4.01 41.88.99 7.32 2.63 14.56 5.34 21.45 2.68 6.8 6.44 13.17 9.56 19.77 11.48 24.27 18.88 49.84 23.82 76.18 2.17 11.57 5.37 22.67 9.03 33.85 3.56 10.88 7.26 21.79 9.43 33.06 1.8 9.32 2.49 19.12.2 28.41 6.91 9.57 10.86 14.92 10.86 14.92l29.77-10.29-124.82-418.21z" opacity=".35"></path><path fill="#f5b501" d="M1956.15 1438.42s47 23.71 67.15 156.21c14.69 96.63 189.07 109.64 189.07 109.64s-86.77 85.95-166.51 62.76c-79.74-23.19-21.09 163.98-145.66 146.28-124.57-17.7-125.9 24.97-242.07-9.11-116.16-34.09-174.59 48.05-195.24-37.78 0 0 179.9-121.99 206.55-290.33 26.64-168.34 119.43-229.09 286.71-137.67z"></path><path fill="#f5b501" d="M1937.16 1757.19c-1.22-6.36-3.32-12.9-7.23-18.16-.06.58-.13 1.15-.18 1.73-.78 7.86-1.17 15.75-2.06 23.59-.88 7.72-2.25 15.45-4.95 22.76-2.26 6.1-5.76 11.72-9.98 16.65-4.03 4.71-8.71 8.83-13.5 12.75-4.92 4.03-9.98 7.89-14.79 12.05.37-.02.74-.03 1.11-.06 9.91-.79 19.73-3.74 28.4-8.62 4.34-2.45 8.42-5.39 12.01-8.85 2.45-2.36 4.45-5.02 6.04-8.03 3.52-6.67 5.24-14.24 6.04-21.69.85-8.01.61-16.21-.91-24.12zM1708.88 1646.69c-1.24.31-2.48.65-3.72 1.06-13.54 4.49-26.43 15.34-37.49 29.02-11.19 13.85-20.61 30.26-28.79 47.14-2.14 4.43-4.15 8.93-6.29 13.36-2.21 4.59-4.52 9.12-6.92 13.58-4.66 8.67-9.69 17.05-15.07 25.03-10.51 15.59-22.37 29.58-35.19 41.17a177.104 177.104 0 0 1-22.37 17.2c1.28-.15 2.57-.29 3.84-.44 3.05-.35 6.11-.69 9.19-1.46 3.6-.9 7.24-2.11 10.85-3.41 7.17-2.59 14.35-5.91 21.35-10.38 7.15-4.56 13.78-10.39 20.14-17.29 12.99-14.08 23.35-31.86 31.8-50.73 4.25-9.5 8.06-19.23 11.71-29.02 3.92-10.52 8.09-21 13.05-30.99 2.49-5.02 5.18-9.92 8.11-14.58 2.58-4.11 5.45-7.71 8.57-11.04 5.71-6.08 11.99-11.26 17.23-18.22zM1862.69 1681.45c-16.28 6.3-28.89 19.03-37.59 33.91-8.75 14.98-13.99 31.88-16.93 48.91-3.97 23-4.25 46.57-9.98 69.28-2.72 10.77-6.49 21.66-12.76 30.91-5.03 7.42-11.64 13.61-18.95 18.75-4.43 3.11-9.07 5.85-13.81 8.41 1.75-.72 3.51-1.44 5.25-2.18 15.54-6.6 31.05-14.55 42.4-27.38 6-6.78 10.56-14.67 13.72-23.14 4.43-11.87 5.97-24.67 6.94-37.23 1.06-13.71 1.26-27.49 2.77-41.17.71-6.46 1.6-13.02 3.3-19.31 1.34-4.94 3.36-9.66 5.89-14.1 9.68-16.97 26.17-29.25 34.26-47.19-1.52.45-3.03.96-4.51 1.53zM1760.35 1662.12c-.11 5.1-.38 10.24-.83 15.38-.72 8.37-1.95 16.59-3.54 24.52 3.1-9.87 5.82-20.44 7.87-31.6 1.08-5.89 1.97-11.93 2.66-18.02.73-6.47 1.17-12.92 1.56-19.41.83-13.72 1.67-27.39 3.76-40.91 1.67-10.81 2.94-21.81 4.66-32.6.23-1.42.46-2.84.7-4.26-2.17 6.32-4.49 12.37-6.68 18.65a435.45 435.45 0 0 0-3.3 12.13 377.66 377.66 0 0 0-3.54 15.06c-1.08 5.09-2.09 10.24-2.7 15.63-1.12 9.94-.79 19.63-.67 29.26.08 5.37.18 10.71.05 16.17z" opacity=".5"></path><path fill="#f5b501" d="M2023.29 1594.63c-20.15-132.49-67.15-156.21-67.15-156.21-117.2-64.05-197.82-53.4-244.76 16.61 2.65 5.87 6.17 11.28 11.38 15.28 8.18 6.28 18.91 8.31 28.96 9.01 8.87.62 21.91.3 27.78 8.41 5.09 7.03 4.24 17 3.5 25.14-.87 9.5-3.1 19.67-1.34 29.2 13.87-14.57 26.88-30.34 45.83-38.46 9.05-3.88 18.81-6.74 28.71-6.95 4.41-.09 8.67.34 12.7 2.21 3.16 1.47 5.68 3.75 8.36 5.92 6.52 5.28 14.16 6.69 22.09 8.64 6.74 1.66 12.68 4.48 17.15 9.96 11.4 13.95 13.99 34.01 11.39 51.3-1.93 12.79-6.38 25.03-11.97 36.69 1.48-2.04 2.98-4.06 4.52-6.06 8.95-11.64 18.44-23.06 24.11-36.76 7.12-17.21 5.87-35.45 6.43-53.65.02-.65.76-1.22 1.34-.7 3.8 3.46 6.93 7.56 9.56 11.96 6 10.01 9.82 21.3 12.49 32.62 2.82 11.98 4.72 24.42 4.55 36.74-.18 12.92-1.5 26.42-5.67 38.71-1.84 5.44-3.97 10.87-4.97 16.55-.75 4.31-.64 8.88 2.31 12.36 2.62 3.09 6.47 5.03 10.11 6.65 4.3 1.91 8.78 3.4 13.23 4.92 8.34 2.85 17.73 5.51 23.88 12.2 7.36 8.01 11.36 19.41 11.06 30.23-.23 8.32-3.24 18.9-11.6 22.49-7.25 3.11-15.95.4-23.2-1.28-8.52-1.97-18.38-4.27-26.46.41-8.3 4.81-11.27 14.24-11.86 23.28-.69 10.53 1.02 21.1 1.85 31.58.75 9.5 1.18 19.63-2.22 28.71-3.69 9.87-11.65 16.25-20.95 20.56-5.15 2.38-10.47 4.45-15.23 7.58-5.47 3.6-8.99 8.57-10.22 15.05-1.13 5.95-.55 12.07-.16 18.06.39 5.94.48 11.81-.26 17.73-.54 4.3-1.49 8.53-2.82 12.63 117.28 11.4 61.59-169.78 140.12-146.94 79.74 23.19 166.51-62.76 166.51-62.76s-174.39-12.99-189.08-109.62z" opacity=".5"></path><path fill="#5e3f35" d="m2329.12 1676.94 28.54 21.13 12.68-8.25s58.3 31.47 77.99 26.55c19.69-4.92-57.42-79.07-84.89-85.52-27.47-6.45-34.32 46.09-34.32 46.09zM1845.69 2396.92l-33.7 11.19-.54 15.11s-59.28 29.59-66.57 48.53c-7.29 18.94 97.71-1.5 118.78-20.26 21.06-18.75-17.97-54.57-17.97-54.57z"></path><path fill="#f4caba" d="m1147.62 959.18 168.48-134.56 6.78-332.44h33.92s72.93 224.08 47.49 361.46-184.88 210.13-184.88 210.13l-71.79-104.59z"></path><path fill="#e8ad80" d="M1381.46 899.49c-7.78 4.65-16.51 8.42-25.42 10.23-5.61 1.14-11.39.38-17.05.77-2.78.19-5.6.63-8.18 1.72-2.5 1.06-4.74 2.62-6.82 4.35-4.06 3.39-7.45 7.48-11.6 10.78-3.79 3.01-7.97 5.59-12.46 7.42-8.97 3.66-18.78 4.08-28.2 2.09-8.34-1.76-16.5-5.06-24.05-8.97-11.32-5.86-23.04-14.73-27.02-27l-73.01 58.31 71.8 104.59s130.91-59.73 174.41-173.16c-3.9 3.28-8.03 6.26-12.4 8.87z" opacity=".35"></path><path fill="#5e3f35" d="M1180.41 1136.71s8.63-49.56 103.61-86.5c1.25-50.88-64.2-115.57-77.77-146.1 0 0-73.32 56.77-124.2 69.77-45.12 11.53 23.73 174.7 98.36 162.83z"></path><path fill="#47271f" d="M1258.57 1046.1c-9.18 2.47-18.62 4.12-28.12 4.63-4.29.23-8.6.23-12.88-.12-4.44-.36-8.97-1.01-13.15-2.61-3.38-1.3-6.47-3.27-8.89-5.98-2.12-2.36-3.66-5.17-5.01-8.02-3.03-6.4-5.63-12.92-11.15-17.64-5.99-5.12-13.74-7.22-21.02-9.81-6.53-2.32-12.82-5.47-16.24-11.81-2.11-3.9-3.08-8.49-3.22-12.89-.18-5.39.05-10.77.07-16.16.02-5.03-.21-10.09-1.31-15.02-.07-.32-.16-.64-.24-.96-18.56 10.46-38.22 19.79-55.34 24.17-45.12 11.53 23.73 174.7 98.36 162.83 0 0 8.63-49.56 103.61-86.5.1-4.26-.27-8.62-1.03-13.05-7.85 3.74-16.07 6.69-24.44 8.94z" opacity=".5"></path><path fill="#f4caba" d="M1372.17 462.86c-.09 1.22-.28 2.31-.5 3.14-.05.18-.09.33-.14.46a131.45 131.45 0 0 1-3.86 10.22c-3.61 8.57-7.23 15.04-7.23 15.04s2.63 54.06.35 60.75c-4.86 5.86-34.47.66-34.47.66-4.31-5.05-.25-59.35-1.64-69.95-1.38-10.61-26.3-29.31-17.99-33.92 6.73 2.04 19.53 10.98 19.53 10.98s-3.07-55.08 9.38-55.74c5.54-.3 5.09 27.64 6.13 38.29.01.09.01.18.02.26.01-.03 3.6-3.35 7.59-1.35 1.95.96 2.59 2.3 2.59 2.3s2.66-1.19 4.69-.73c2.04.46 4.87 2.28 4.9 3.28.04 0 2.33-1.18 4.56.21 2.23 1.38 3.14 5.21 3.14 5.21h-.03c.3.38.59.75.84 1.14 1.94 3.02 2.34 6.79 2.14 9.75z"></path><path fill="#fff" d="M1372.17 462.86c-.39-.38-.84-.68-1.38-.84-2.39-.73-3.76 1.39-4.49 3.17-.43 1.04-.68 2.19-1.23 3.18-.46.86-1.34 1.6-2.15 2.17-6.93 4.9-21.45 2.16-22.21-7.2-.31-3.83-.29-7.84-.05-11.65.2-3.18.26-5.58 1.1-8.62.01-.03 3.6-3.35 7.59-1.35 1.95.96 2.59 2.3 2.59 2.3s2.66-1.19 4.69-.73c2.04.46 4.87 2.28 4.9 3.28.04 0 2.33-1.18 4.56.21 2.23 1.38 3.14 5.21 3.14 5.21h-.03c.3.38.59.75.84 1.14 1.93 3 2.33 6.77 2.13 9.73zM1308.81 458s1.15-.12.81-1.61c-.35-1.5-3.98-4.56-3.98-4.56s-.92 2.94 3.17 6.17z" opacity=".2"></path><path fill="#231f20" d="M1366.93 463.27c-1.47 9.61-6.49 12.04-8.75 12.65-6.21-1.06-12.03-3.08-14.88-5.43-1.99-1.64-2.88-5.65-3.11-10.24-.03.25-.07.51-.1.76-.46 4.26-.75 9.17 1.43 13.04 2.16 3.82 6.46 5.33 10.66 5.21 3.37-.1 6.69-1.05 9.83-2.35h.01c.01 0 .01-.01.02-.01.29-.12.59-.24.88-.37-.08-.01-.17-.02-.25-.02 4.81-3.25 4.26-13.24 4.26-13.24z" opacity=".1"></path><path fill="#e8ad80" d="M1357.98 474.85c1.05-2.91 1.65-5.27 2.23-8.27.56-3.07.88-6.22.47-9.31.19 3.11-.34 6.18-1.11 9.17-.79 2.98-2.98 8.49-2.98 8.49-1.05.06-4.61-.98-6.12-1.51-.08-.03-.15-.06-.22-.08.81-3.04 1.51-6.08 2.06-9.16.55-3.12 1-6.28.9-9.44-.12 3.16-.78 6.26-1.54 9.31-.75 2.99-1.65 5.96-2.64 8.86-1.02-.38-2.03-.78-2.96-1.29-2.59-1.41-3.79-2.64-4.89-7.27-.37-1.55-.53-3.16-.68-4.77-.18-1.61-.25-3.22-.33-4.85-.38 3.23-.41 6.52.03 9.79.23 1.63.6 3.28 1.41 4.83.23.38.42.78.75 1.1l.45.51.5.42c.33.29.69.53 1.05.75.36.24.72.45 1.1.63 3 1.51 6.19 2.37 9.39 3 3.21.61 6.26.23 8.82-3.82-1.65 2.29-5.01 3.06-5.69 2.91z"></path><path fill="#231f20" d="M1360.11 491.21c-3.8 3.45-12.11 3.57-19.7 2.9-5.77-.51-10.6-3.59-14.08-6.73.47.95.98 1.89 1.56 2.8 1.52 2.37 7.58 12.99 15.11 12.98 11.78-.03 14.86-10.2 17.08-11.47l.03-.48z" opacity=".1"></path><path fill="#f5b501" d="M878.12 2374.5s-69.35 37.69-61.44 58.8c7.92 21.11 73.88 98 73.88 98h74.25s-2.55-43.35-42.21-36.18l-25.63-62.94 11.31-19.98-30.16-37.7z"></path><path fill="#f5b501" d="M870.77 2408.78c1.36 3.13 3.25 5.98 5.01 8.89 1.74 2.88 3.45 5.78 5 8.76 2.98 5.73 5.37 11.84 6.15 18.29.4 3.31.36 6.64.05 9.96-.21 2.22-.65 4.52-.41 6.75.58 5.32 6.11 8.48 10.52 10.38 2.56 1.11 5.25 2.11 7.51 3.8 1.99 1.49 3.44 3.53 4.25 5.89 1.53 4.48.55 9.25-1.12 13.53-1.95 4.97-4.77 9.55-7.41 14.17-1.84 3.22-3.82 6.6-5.02 10.18 3.42-3.84 7.13-7.43 11.2-10.57 8.11-6.25 17.49-10.64 27.51-12.77 1.64-.35 3.29-.62 4.94-.85-4.6-1.06-9.99-1.23-16.36-.08l-25.63-62.94 11.31-19.98-30.15-37.69s-3.6 1.96-9.07 5.23c-2.24 9.65-2.23 19.92 1.72 29.05z" opacity=".5"></path><path fill="#f5b501" d="M1632.71 2431.41s33.92 66.71 52.01 72.37c18.09 5.65 137.42-119.4 127.77-134.56-19.79-31.09-107.99 53.79-107.99 53.79l-39.58-15.34-32.21 23.74z"></path><path fill="#f5b501" d="M1713.64 2477.83c-5.32.99-10.54 2.39-15.87 3.36-4.98.91-10.46.99-15.15-1.18-3.94-1.82-6.86-5.13-8.41-9.17-.86-2.25-1.34-4.63-1.54-7.02-.12-1.49-.17-2.95.04-4.44.2-1.41.52-2.79.76-4.2.99-5.93-2.65-10.81-5.55-15.59-1.29-2.12-2.39-4.43-2.37-6.96.02-2.44 1.23-4.93 2.92-6.66 1.47-1.51 3.41-2.55 5.31-3.42 2.35-1.08 4.8-1.91 7.26-2.67 2.96-.92 5.99-1.65 8.98-2.49l-25.08-9.72-32.23 23.75s33.92 66.71 52.01 72.37c5.76 1.8 21.79-9.66 40.65-26.6-3.89-.57-7.88-.08-11.73.64z" opacity=".5"></path><path fill="#47271f" d="m868.33 2373.18 39.01 50.88 468.12-235.76-128.9-153.13z"></path><path fill="#47271f" d="m1246.56 2035.17-156.32 139.7c14.35-3.81 29.15-5.69 43.79-3.62 11.33 1.6 22.68 5.84 31.93 12.67 5.71 4.21 10.93 10.31 10.17 17.86-.7 7-5.81 12.86-10.8 17.39-6.76 6.14-14.69 11-22.69 15.34-15.09 8.19-31.15 14.67-47.38 20.22-10.76 3.68-21.65 7.07-32.01 11.79-9.83 4.47-19.69 10.28-26.15 19.16a35.806 35.806 0 0 0-6.28 14.64c-.91 4.97-1.44 9.99-1.99 15.01-.35 3.26-.71 6.64-1.98 9.69-1.27 3.06-3.46 5.52-6.02 7.58-4.25 3.41-9.2 5.96-14.03 8.41-5.12 2.6-10.48 4.77-15.77 6.99-11.25 4.72-22.57 9.26-33.53 14.62-10.97 5.36-21.69 11.53-30.95 19.56-9.08 7.87-16.04 17.35-20.37 28.57-1.03 2.67-1.96 5.38-2.82 8.11l3.99 5.2 468.13-235.76-128.92-153.13z" opacity=".5"></path><path fill="#5e3f35" d="M888.68 1650.63s-20.35 123.82 55.97 235.76c76.33 111.94 693.71 556.33 693.71 556.33l35.62-32.23-459.65-766.64s-140.77-40.71-325.65 6.78z"></path><path fill="#47271f" d="M1308.96 2142.84c-7.67-14.38-17.38-27.74-29.42-38.77-9.82-8.99-21.14-15.69-33.06-21.49-24.94-12.15-51.38-21.02-75.85-34.19-20.55-11.06-42.16-26.6-47.47-50.77-3.17-14.43.83-27.85 4.38-41.77 4.25-16.66 8.06-33.59 2.93-50.51-10.24-33.82-39.11-57.7-57.73-86.62-8.11-12.6-15.79-27.4-15.05-42.83.66-13.82 8.7-25.35 20.61-31.98 26.31-14.66 58.28-10.06 87.03-13.16 28.86-3.11 59.58-11.38 84.63-27.48l-35.63-59.42s-140.78-40.71-325.65 6.78c0 0-20.35 123.82 55.97 235.76 39.16 57.43 220.75 202.38 388.3 329.92-4.49-25.51-11.82-50.65-23.99-73.47z" opacity=".5"></path><path fill="#f9d980" d="M1102.39 959.18s224.3 206.93 138.72 729.33c0 0-319.1 105.1-353.58-28.3-34.48-133.4 255.56-404.78 219.94-520.11-35.61-115.33-59.36-180.35-5.08-180.92z"></path><path fill="#f5b501" d="M1224.11 1634.12c-3.94-14.57-11.3-27.36-18.77-40.34-6.18-10.74-12.13-21.77-15.12-33.88-3.3-13.4-2.49-26.46.77-39.76 3.31-13.49 8.15-26.7 9.03-40.67 1.79-28.62-15.07-55.05-25.81-80.47-5.3-12.53-9.7-25.56-11.27-39.13-1.63-14.09.97-28.68 4.15-42.37 3.43-14.77 7.99-29.28 10.7-44.22 2.15-11.8 2.63-23.69 2.39-35.66-.49-24.47-3.99-48.91-9.5-72.73-5.64-24.38-13.52-48.34-24.17-71.01-9.37-19.93-21.01-39.16-36.34-55.09 1.26 14.77 4.37 29.39 4.32 44.25-.04 12.15-2.54 24.41-8.78 34.95-1.07 1.8-2.23 3.54-3.44 5.25 1.71 5.49 3.45 11.11 5.22 16.85 35.62 115.34-254.42 386.71-219.94 520.11 29.29 113.32 263.94 54.54 333.93 34.27 6.42-19.04 8.34-39.19 2.63-60.35z" opacity=".5"></path><path fill="#f5b501" d="M1088.44 701.62s-184.32-110.96-189.53-87.69c-5.21 23.28 80.68 175.41 89.26 197.01 8.58 21.59 73.79-78.92 100.27-109.32z"></path><path fill="#f5b501" d="M1042.78 675.03c-1.35.52-2.65 1.19-3.78 2.1-1.87 1.49-3.21 3.48-4.31 5.58-2.26 4.34-3.62 9.16-6.74 13.02-3.17 3.91-8.15 6.38-13 7.44-9.61 2.09-19.33-1.1-28.98-.04-1.41.15-2.97.42-4.15 1.28-.92.67-1.49 1.7-1.94 2.72-1.53 3.42-2.61 7.1-5.09 10.01-5.77 6.74-14.78 2.45-20.76-1.59-1.89-1.28-3.71-2.66-5.5-4.08-2.07-1.65-4.07-3.29-5.82-5.29-3.21-3.67-5.5-7.97-7.5-12.39-2.06-4.54-3.93-9.18-6.36-13.54a47.282 47.282 0 0 0-6.4-8.87 46.185 46.185 0 0 0-7.12-6.34c24.21 53.99 66.92 131.01 72.84 145.91 8.58 21.59 73.78-78.92 100.27-109.32 0-.01-19.34-11.65-45.66-26.6z" opacity=".5"></path><path fill="#47271f" d="M1144.33 788.55s42.91-36.2 31.11-60.05c-11.8-23.85-38.1-13.54-54.66-22.46-16.56-8.92-20.76-35.97-52.6-4.72s-23.36 26.29-54.79 33.43c-31.43 7.14-15.66 15.73-30.53 31.79-14.87 16.06-44 39.97-17.74 65.54 26.26 25.57-16.41 57.64 29.56 54.36 45.97-3.28 66.4 23.06 106.71-25.82 40.3-48.87 21.02-48.38 42.94-72.07z"></path><path fill="#47271f" d="M1101.13 831.25a499.558 499.558 0 0 1-17.63-15.28c-2.67-2.42-5.26-4.8-8.25-6.76-2.49-1.63-5.13-3.24-6.97-5.74-3.21-4.36-2.11-10.88-4.84-15.46-1.4 1.15-2.63 2.53-3.54 4.18-2.06 3.69-2.56 8.01-2.76 12.07-.23 4.55-.06 9.07-.45 13.62-.35 4.11-1.15 8.37-3.32 12.02-2.12 3.57-5.34 6.55-8.96 7.91-7.24 2.72-14.52-.52-21.38-1.71-3.6-.63-8.02-1.08-11.29 1.8-3.28 2.89-4.26 8-5.43 12.06-1.24 4.26-2.7 9.03-6.07 12.03-2.52 2.25-5.47 2.19-8.03.8-1.7-.92-3.18-2.25-4.54-3.66-1.54-1.6-3.1-3.28-4.11-5.36-1.91-3.91-2.06-8.56-2.8-12.94-.73-4.33-2.34-7.93-4.98-11.06-2.18-2.59-4.78-4.71-7.63-6.37-3.67-2.13-7.74-3.53-11.96-4.2 1.6 4.23 4.47 8.53 8.94 12.89 26.26 25.57-16.41 57.64 29.56 54.36 45.97-3.28 66.4 23.06 106.71-25.82 6.13-7.44 10.88-13.72 14.61-19.13-5.53-2.41-10.2-6.39-14.88-10.25z"></path><path fill="#f4caba" d="m1131.49 1013.77-11.27-154.47-52.71-50.51-47.55 180.92z"></path><path fill="#e8ad80" d="M1098.18 868.96c-5.1-1.17-10.15-2.55-15.29-3.54-2.39-.46-4.83-.64-7.22-1.08-.64-.12-1.25-.32-1.86-.53-.16-.06-.33-.14-.5-.17-.06-.01-.08-.01-.1 0-.21.29-.21 1.11-.24 1.45-.06.63-.12 1.27-.07 1.91.12 1.28.58 2.49 1.17 3.62 1.43 2.75 3.63 5.08 5.85 7.21 4.67 4.47 10.03 8.08 15.09 12.07 4.23 3.33 8.79 6.61 11.85 11.12 1.43 2.11 2.65 4.73 1.93 7.32-.79 2.84-3.67 4.62-6.37 5.29-3.63.9-7.57.36-11.2-.26-3.3-.57-6.64-1.13-9.9-1.88-3.63-.84-7.23-1.87-10.94-2.28-1.75-.2-3.55-.28-5.28.13-.83.19-1.79.52-2.43 1.09-.41.37-.63.86-.92 1.32-2.02 3.21-6.26 3.91-9.74 4.02-1.94.06-3.88-.05-5.82-.13-2.15-.09-4.29-.06-6.44-.05h-.32l-19.48 74.12 111.53 24.06L1121 870.23c-7.6.83-15.35.44-22.82-1.27z" opacity=".35"></path><path fill="#f4caba" d="M1181.51 823.82c5.68-2 11.99-5.66 9.47-11.69-4.31-10.33-25.43-31.42-25.43-31.42-12.72-29.51-25.79-52.38-25.79-52.38s-78.06 1.55-88.42 50.57c0 0-31.14-6.88-24.73 28.45 3.99 22.02 16.4 13.56 21.95 17.98 10.67 8.5.25 54.58.25 54.58s80.61 56.07 126.55 23.6c19.15-13.53 16.15-46.19 6.15-79.69z"></path><path fill="#47271f" d="M1161.17 729.79c8.33 11.07-8.09 41.5-37.7 34.23-29.61-7.28-41.29-.67-52.97 28.76-11.68 29.43-19.1-16-26.41-27.96-7.31-11.97 2.1-44.78 33.21-49.11 31.13-4.33 67-8.34 83.87 14.08z"></path><path fill="#5e3f35" d="m1104.21 974.74 10.74-40.07s-82.38-29.67-94.99-9.41c-5.95 9.56 15.23 24.5 3.92 44.85s-180.43 159.06-164.6 183.93c15.83 24.88 97.24 143.23 113.07 134.18 15.83-9.05-158.3 359.58-101.77 386.71 56.54 27.14 201.27-42.97 330.18 13.57 0 0-70.11-189.96-54.28-321.13 15.84-131.15 20.36-346.65-42.27-392.63z"></path><path fill="#47271f" d="M923.41 1637.09c1.63-7.27 6.23-13.37 8.55-20.39 1.5-4.55 1.15-8.51-.34-12.99-1.11-3.34-2.56-6.55-3.64-9.9-2.56-7.97-3.21-18.71.14-26.64 5.53-13.08 21.33-13.68 33.47-12.22 17.97 2.16 35.37 8.45 52.4 14.31 7.72 2.66 15.43 5.41 23.29 7.66 4.34 1.24 9.61 3 14.27 2.39-1.6-4.44-3.2-8.88-4.82-13.31-7.11-19.45-14.43-38.83-22.4-57.95-3.71-8.89-7.6-17.57-12.11-26.08-3.91-7.37-7.57-15.09-7.93-23.57-.65-15.14 10.97-27.35 11.22-42.34.29-17.2-11.14-31.73-12.47-48.59-1.31-16.53 7.93-32.28 15.58-46.25 4.16-7.61 8.29-15.28 11.15-23.5 1.98-5.69 3.13-11.58 4.05-17.51 3.65-23.58 4.82-47.84 3.9-71.67-.49-12.61-1.62-25.33-4.56-37.63-2.05-8.57-5.06-18.19-11.5-24.59-1.09 14.54-6.45 27.67-13.2 40.52-3.3 6.28-6.74 12.49-9.83 18.88-2.77 5.73-5.28 11.56-8.15 17.24-5.15 10.21-10.9 20.13-17.62 29.4-6.27 8.66-13.37 16.52-21.11 23.7 9.39 9.25 16.85 14.29 20.61 12.15 15.83-9.05-158.3 359.58-101.77 386.71 14.5 6.96 34.8 7.52 59.14 5.46-5.07-13.66-9.57-28.8-6.32-43.29z" opacity=".5"></path><path fill="#f4caba" d="M834.4 1201.16c-3.39 0-61.07 76.32-62.76 125.26-3.15 91.26 277.93 279.68 277.93 279.68l18.09-18.09-167.12-244.49 59.33-53.69-125.47-88.67z"></path><path fill="#e8ad80" d="M799.36 1251.29c5.46 12.32 12.22 24.11 21.1 34.3 8.69 9.98 19.2 18.13 30.53 24.92 3.3 1.98 6.66 3.84 10.07 5.62 2.98 1.56 5.87 3.35 8.26 5.75 3.48 3.51 4.77 7.93 4.93 12.77.18 5.45-.27 10.82 1.02 16.18.85 3.55 2.3 6.81 5.02 9.33 2.4 2.23 5.41 3.65 8.38 4.96 3.11 1.38 6.27 2.72 9.13 4.59 2.96 1.94 5.41 4.64 7.44 7.51 4.29 6.08 6.86 13.14 9.61 20 5.92 14.74 13.87 29.14 24.28 41.2 5.24 6.07 11.23 11.54 18.08 15.75 6.21 3.82 13.01 6.72 19.94 8.97 2.13.69 4.28 1.3 6.45 1.87l-83.04-121.49 59.33-53.69-125.47-88.66c-1.82 0-19.2 21.89-35.21 49.73.04.12.09.26.15.39z" opacity=".35"></path><path fill="#f4caba" d="M1064.19 1636.89c-2.08-1.96-4.73-5.06-8.17-10 0 0 .04.02.1.07-1.81-2.4-3.52-5.03-5.1-7.74-2.73-4.68-4.47-8.25-5.56-10.84 0-.02-.01-.02-.02-.03-1.6-3.82-1.82-5.5-1.82-5.5s-39.19-35.59-42.6-41.62c-1.13-7.37 20.82-20.9 20.82-20.9 6.49.13 36.59 36.5 46.79 38.88 11.89 2.78 39.15-5.3 37.13 3.77-2.03 9.09-21.58 8.31-21.58 8.31s.21.13.58.39c2.28 1.54 10.73 7.57 16.25 15.43l.01.01c1.52 2.19 2.83 4.52 3.71 6.93.15.43.3.85.43 1.28.23.76.42 1.55.54 2.33.02.12.05.26.06.39.06.39.11.79.14 1.18v.05c-.01.01-.01.01-.01.02-.22 1.06-.8 2.24-2.06 3.47-4.06 3.97-7.69 1.29-7.69 1.29s1.51 4.17-2.26 6.87c-4 2.88-6.02-.21-6.02-.21s.16 4.78-3.08 6.93c-3.41 2.27-5.69-1.35-5.69-1.35s.6 3.37-3.37 6.07c-3.55 2.44-11.53-5.48-11.53-5.48z"></path><path fill="#fff" d="M1083.16 1626.96a.42.42 0 0 1-.24.42c-2.19 1.14-4.21 2.3-5.38 4.56-.39.75-.84 1.6-1.7 1.88-.39.13-.8.1-1.21.12-.55.03-.98.23-1.45.49-1.55.87-2.92 2.07-4.11 3.39-.54.6-1.06 1.24-1.55 1.92 2.62 1.99 6.16 4.05 8.22 2.64 3.97-2.7 3.37-6.07 3.37-6.07s2.27 3.62 5.69 1.36c3.24-2.15 3.08-6.93 3.08-6.93s2.02 3.09 6.02.21c3.77-2.7 2.26-6.87 2.26-6.87s3.63 2.68 7.69-1.29c1.26-1.23 1.84-2.42 2.06-3.47.01-.01.01-.01.01-.02v-.05c-.03-.39-.08-.79-.14-1.18-.02-.13-.04-.27-.06-.39-.12-.79-.32-1.56-.54-2.33-.13-.43-.28-.85-.43-1.28-.65 1.2-1.65 2.3-2.61 3.2-1.1 1.02-2.4 1.99-3.94 2.15-1.62.18-3.12-.59-4.72-.57-1.68.04-3.13 1.27-3.89 2.7-.66 1.24-.77 2.61-1.91 3.55-1.27 1.05-2.92 1.39-4.46 1.86-.03-.01-.04 0-.06 0zM1104.13 1581.1s-7.2 1.3-8.16.4-.11-2.26-.11-2.26 7.03-.15 8.27 1.86z" opacity=".2"></path><path fill="#5e3f35" d="M949.74 1044.74s-190.72 180.17-159.81 209.56c30.91 29.4 133.07 83.01 171.69 70.15 38.63-12.85 130.33-246.3-11.88-279.71z"></path><path fill="#47271f" d="M1154.66 794.15a8.482 8.482 0 1 1-15.69-6.45 8.482 8.482 0 0 1 15.69 6.45zM1156.61 774.01c-17.63-1.79-27.62 4.23-30.02 2.62-2.4-1.61 7.45-11.93 17.97-10.3 10.52 1.62 15.46 8.02 12.05 7.68zM1150.43 856.33c20.69 8.61 34.98 4.98 37.29 7.81s-13.07 7.7-25.21 1.88c-12.13-5.81-16.07-11.35-12.08-9.69z"></path><path fill="#e8ad80" d="M1154.74 841.89c-.93 7.41-10.97 12.26-22.44 10.82-11.46-1.43-20.01-8.6-19.08-16.01s10.97-12.26 22.44-10.82c11.47 1.44 20.01 8.6 19.08 16.01z" opacity=".25"></path><path fill="#47271f" d="M1033.97 804.32c-.3-.12-.53-.35-.65-.65-4.68-11.19 5.45-15.96 5.56-16.01.3-.14.65-.14.96-.02a1.212 1.212 0 0 1 .04 2.22c-.33.15-8.12 3.82-4.33 12.88.12.3.13.62 0 .92-.12.3-.35.53-.65.66-.31.13-.63.13-.93 0zM1772.08 863.51s-101.85-50.58-52.39-116.43c49.46-65.84 92.56-33.67 92.56-33.67s29.5-32.51 70.63 22.49c41.13 55.01 11.15 85.29 11.15 85.29s66.01-14.05 69.59 38.83c3.58 52.88-48.71 90-9.8 114.15 38.9 24.15-83.64 130.04-139.25 76.75-55.62-53.27-128.14-108.24-42.49-187.41z"></path><path fill="#47271f" d="M1961.29 987.34c-5.23 1.1-10.52 1.88-15.88 2.11-7.28.31-14.74-.46-21.46-3.43a33.346 33.346 0 0 1-9.11-5.96c-2.98-2.75-5.74-6.11-7.32-9.87-1.75-4.16-2.04-8.71-2.57-13.14-.52-4.42-1.39-9.22-4.47-12.64-2.78-3.08-6.92-4.37-10.73-5.68-3.89-1.33-7.57-2.98-11.04-5.19-5.83-3.73-10.8-9.02-12.17-15.99-1.42-7.21 1.44-13.88 4.37-20.29 3.03-6.62 5.99-13.41 7.37-20.59 1.21-6.28 1-13.27-3.63-18.02-.21.51-.41 1.03-.66 1.52-6.04 11.95-20.71 14.79-32.44 17.96-6.67 1.8-13.34 3.76-19.31 7.33-3.29 1.97-6.14 4.53-9.4 6.54a41.99 41.99 0 0 1-9.57 4.36c-13.32 4.14-27.38 1.32-41.02 1.37-3.65.01-7.37.14-10.97.76-3.34.57-6.55 1.67-9.71 2.86-31.29 59.69 26.69 105.22 72.99 149.59 48.34 46.3 147.2-27.6 146.73-63.6z"></path><path fill="#dbad9e" d="M1375.88 988.29s26.77-10.39 39.94 6.41c13.17 16.8.9 23.31.9 23.31s-22.15-20.11-29.21-20.61c-7.05-.5-15.84-2.63-11.63-9.11z"></path><path fill="#dda999" d="M1370.95 981.13s26.77-10.39 39.94 6.41c13.17 16.8.9 23.31.9 23.31s-22.15-20.11-29.21-20.61c-7.06-.49-15.84-2.63-11.63-9.11z"></path><path fill="#dbad9e" d="M1369.35 972.78s26.77-10.39 39.94 6.41c13.17 16.8.9 23.31.9 23.31s-22.15-20.11-29.21-20.61c-7.06-.49-15.84-2.63-11.63-9.11z"></path><path fill="#f4caba" d="M1419.04 1075.98s17.45-7.14 22.32-13.97c0 0-17.59-25.93-19-35.8-1.42-9.87 7.51-26.94-1.28-45.63-4.68-9.95-10.47-20.39-17.08-23.78-6.84-3.5-26.61-5.71-29.2-1.78-2.59 3.92 9.76 7.99 16.89 11 7.12 3.02 12.5 9.93 13.7 17.8s-8.24 13.29-8.24 13.29-7.36-19.46-11.88-19.18c-4.53.28-.24 10.75 1.37 21.79s1.58 30.18 10.07 34.17c8.47 3.99 22.33 42.09 22.33 42.09z"></path><path fill="#fff" d="M1384.78 984.98c.05.08 3.59.36 3.52-1.51-.07-1.87-2.9-5.26-3.42-4.1-.51 1.16-1.22 3.84-.1 5.61zM1374.91 955.67c0 .17 4.41 0 5.5-.74 1.09-.74.85-1.53.85-1.53s-6.32.13-6.35 2.27z" opacity=".2"></path><path fill="#f4caba" d="M1887.78 991.34s-113.94-44.81-172.32 15.56c0 0-16.95 108.29 40.16 136.55 57.12 28.25 132.16-152.11 132.16-152.11z"></path><path fill="#f4caba" d="m1714.67 1016.17-158.93 170.82-132.55-157.5-14.62 22.27s91.82 260.07 153.94 246.73c62.12-13.35 167.75-131.54 167.75-131.54l-15.59-150.78z"></path><path fill="#e8ad80" d="M1702.65 1181.07c3-15.57 5.46-31.25 7.06-47.03 1.64-16.22 2.39-32.56 1.64-48.85-.7-15.05-2.7-30.11-6.82-44.62-.42.95-.84 1.91-1.25 2.87-4.58 10.8-8.53 21.86-13.54 32.47-4.75 10.05-10.49 20.03-18.81 27.56-4.08 3.7-8.72 6.33-13.67 8.7-4 1.91-8.4 3.64-11.45 6.99-4.05 4.45-5.43 10.98-6.04 16.77-.84 7.94 0 15.95.61 23.88.3 3.85.56 7.72.58 11.59.01 3.59-.4 7.14-.99 10.68-1.16 7.05-3.15 14.02-6.27 20.46-1.5 3.09-3.26 6.06-5.29 8.84-1.95 2.67-4.03 5.33-6.18 7.84-1.27 1.47-2.72 2.87-3.71 4.55-1.18 2.01-1.56 4.36-1.83 6.65-1.03 8.64-.3 17.31.41 25.94.37 4.55.77 9.11 1.05 13.68 29.22-20.81 59.07-48.63 80.61-70.13 1.26-6.28 2.68-12.55 3.89-18.84z" opacity=".35"></path><path fill="#f9d980" d="M1977.78 1418.48c-85.63-50.71-49.6-190.62-54.85-265.39-5.25-74.77-9.05-152.93-32.36-166.99-23.31-14.05-48.47 54.59-112.85 70.15-64.38 15.56-48.63-65.94-48.63-65.94s-28.2 2.1-27.48 54.89c.72 52.79-58.15 106.13-29.37 158.49 28.78 52.37-17.59 203.73 33.46 249.36 44.97 40.2 340.4 5.89 272.08-34.57z"></path><path fill="#f5b501" d="M1726.28 1217.01c-16.23 4.41-36.23 1.64-47.25-12.12-5.05-6.31-8.01-14.07-10.06-21.81-1.77-6.67-2.9-13.47-4.01-20.27-1.75 13.68-.19 27.31 7.27 40.88 20.14 36.66 3.48 121.82 9.17 185.27 5.9-2.76 10.9-7.14 14.32-12.71 3.41-5.57 5.25-11.95 6.05-18.4.42-3.36.62-6.79.45-10.18-.17-3.52-.69-7.02-1.04-10.53-.66-6.56-.94-13.74 2.92-19.44 3.39-5.01 9.51-7.87 14.74-10.55 5.01-2.56 10.39-5.05 14.36-9.15 1.92-1.99 3.43-4.35 4.26-7 1.01-3.24 1.03-6.76.77-10.11-.59-7.6-3.1-14.88-3.95-22.43-.4-3.58-.4-7.26.43-10.79.88-3.77 2.68-7.2 5.06-10.23 4.25-5.4 10.33-8.51 17-9.81 6.38-1.24 12.97-1.04 19.43-.8 5.01.18 10.05.05 15.04-.44 5.66-.55 11.4-1.53 16.7-3.66 3.92-1.57 7.79-3.95 9.86-7.7-5.16 1.18-10.4 2.02-15.68 2.45-10.43.84-21.06.26-31.26-2.14-4.36-1.03-8.5-2.36-12.1-5.1-3.11-2.36-5.66-5.36-8.42-8.11-6.26 7.32-14.84 12.37-24.06 14.88zM1887.42 1089.76c-9.1 13.39-16.83 28.07-21 43.78-3.65 13.76-3.82 27.62-.64 41.49 2.92 12.75 7.99 24.87 12.64 37.06 4.66 12.21 8.99 24.7 10.48 37.75.78 6.87.98 13.92-.77 20.65-1.88 7.23-5.42 13.86-7.75 20.93-2.57 7.79-2.33 15.49-1.26 23.52 1 7.52 2.28 15.16.9 22.73-1.37 7.52-5.4 14.61-9.28 21.09-4.12 6.88-8.74 13.44-13.32 20.02-4.84 6.96-9.68 13.96-13.78 21.4-4.19 7.61-7.86 15.56-11.5 23.44-7.05 15.26-13.43 30.84-18.65 46.82 10.11-13.16 21.58-25.21 33.44-36.8 11.66-11.41 23.7-22.44 35.31-33.91 5.71-5.65 11.33-11.4 16.72-17.35 5.42-5.98 10.41-12.32 15.93-18.2 4.38-4.66 8.98-9.08 13.72-13.32-18.15-63-2.04-145.98-5.68-197.76-2.35-33.51-4.42-67.69-8.07-96.48-10.08 10.21-19.37 21.26-27.44 33.14zM1977.78 1418.48c-16.08-9.52-27.87-22.19-36.44-36.98-8.02 8.14-15.74 16.57-23.45 25-14.84 16.22-29.78 32.5-46.88 46.41-4.14 3.37-8.36 6.66-12.89 9.49-4 2.5-8.11 4.81-12.19 7.17 86.47-5.65 172.01-27.31 131.85-51.09z" opacity=".35"></path><path fill="#f4caba" d="M1898.78 996.57s151.58 168.11 146.25 270.97c-5.33 102.87-221.57 224.87-221.57 224.87l-20.41-25.27 160.05-197.29s-93.11-107.53-92.95-170.56c.16-63.04 28.63-102.72 28.63-102.72z"></path><path fill="#e8ad80" d="M1944.48 1219.59c-6.29-5.73-13.02-10.99-18.58-17.45-6.16-7.16-10.71-15.42-15.13-23.72-4.38-8.22-8.42-16.62-12.06-25.19-7.16-16.83-12.78-34.28-16.95-52.09-3.3-14.1-5.7-28.38-7.42-42.75a206.21 206.21 0 0 0-4.18 40.88c-.14 56.57 74.82 148.95 90.2 167.31 2.84-4.55 5.4-27.63-15.88-46.99z" opacity=".35"></path><path fill="#f4caba" d="m1852.71 990.94-17.59-106.87-52.33 3.68-14.07 103.13s17.58 52.74 83.99.06z"></path><path fill="#e8ad80" d="M1775.16 966.15c1.3-1.7 2.06-3.74 2.75-5.75 1.77-5.16 3.42-10.31 7.43-14.22 3.51-3.42 8.02-5.35 12.62-6.86 5.18-1.71 10.47-3.1 15.41-5.45 5.22-2.48 9.97-5.99 13.01-10.99 2.62-4.31 3.83-9.25 4.42-14.22.96-8.09.59-16.28 1.26-24.38l-49.27 3.46-11.12 81.49c1.32-.83 2.53-1.82 3.49-3.08z" opacity=".35"></path><path fill="#f4caba" d="M1881.66 857.06c-3.62-27.69-28.22-19.71-28.22-19.71s-26.43-92.58-69.61-77.06c-25.44 9.15-45.45 58.42-52.12 102.72-3.44 6.36-8.09 14.64-10.75 17.97-3.14 3.94 3.77 5.99 8.42 6.89-.61 20.48 2.54 37.48 10.47 45.25 26.73 26.19 94.34-21.24 107.9-47.47.01 0 37.54-.9 33.91-28.59z"></path><path fill="#47271f" d="M1856.82 836.61c23.65-5.68 18.07-69.37-33.56-91.33-31.36-13.33-81.21-22.2-72.27 34.07 3.01 18.95 39.54 73.19 105.83 57.26z"></path><path fill="#f4caba" d="M1777.81 1544.75c-2.79-4.63 12.99-22.82 12.99-22.82s-29.71 24.93-32.43 19.58c-2.72-5.35 22.56-27.63 22.56-27.63s-33.4 26.27-38.9 22.85c-5.5-3.42 31.57-31.03 31.57-31.03s-35.78 18.33-38.79 13.21c-3.01-5.12 33.19-23.5 39.82-28.9 4.3-3.51 4.24-8.73-1.58-8.59-5.82.14-14.37-7.62-12.69-11.62 1.67-4 18.78 4.76 24.93 1.39 6.14-3.37 14.2-5.55 17.76-4.06 9.33.78 49.09-35.07 49.09-35.07 2.01 1.65 13.11 12.03 17.9 21.94l-45.53 34.19s-1.81 10.7-8.86 19.41-35.05 41.79-37.84 37.15z"></path><path fill="#fff" d="M1761.17 1469.57c1.11-.81 3.47-.06 4.43.28 0 0 .41 2.01-.81 1.96-1.22-.06-4.73-1.43-3.62-2.24zM1735.3 1518.57c-.38-1.37 3.21-4.06 3.72-4.02 0 0 1.62 3.27 1.64 3.95s-4.98 1.44-5.36.07zM1742.97 1535.82c-.73-1.22 2-4.78 2.5-4.87 0 0 2.44 2.71 2.64 3.36.2.65-4.41 2.73-5.14 1.51zM1759.81 1540.67c-.79-1.18 1.78-4.86 2.27-4.98 0 0 2.56 2.6 2.79 3.24.24.64-4.27 2.92-5.06 1.74zM1778.59 1543.96c-.74-.92 1.1-4.17 1.5-4.31 0 0 2.32 1.96 2.56 2.47.25.53-3.31 2.76-4.06 1.84z" opacity=".2"></path><path fill="#e8ad80" d="M1744.09 863.38c-2.12 6.68 1.58 13.81 8.25 15.93 6.68 2.12 13.81-1.58 15.93-8.25 2.12-6.68-1.58-13.81-8.25-15.93-6.68-2.12-13.81 1.58-15.93 8.25z" opacity=".25"></path><path fill="#47271f" d="M1778.59 833.3c-15.79-8.06-27.28-6.07-28.93-8.44-1.65-2.37 10.78-5.27 19.99.06 9.22 5.32 11.99 9.93 8.94 8.38zM1731.19 900.54c15.11 9.27 24.08-1.33 25.54 1.17 1.46 2.49-8.51 13.92-17.28 7.89-8.78-6.04-11.18-10.85-8.26-9.06zM1758.86 902.45c-.75-5.23-4.88-5.27-4.59-6.08.29-.81 4.81-.69 5.1 2.47.28 3.15-.37 4.62-.51 3.61zM1750.51 854.51c-7.47-2.37-8.9-7.51-8.96-7.76-.16-.59.2-1.2.8-1.36.59-.16 1.2.2 1.36.8.06.22 1.65 5.57 10.76 6.95 8.91 1.35 11.27-7.37 11.36-7.74.15-.59.76-.95 1.35-.8.57.13.95.75.8 1.35-.03.11-2.93 11.05-13.85 9.4-1.34-.22-2.55-.5-3.62-.84z"></path><path fill="#47271f" d="M1766.78 857.42c-.18-.06-.35-.16-.48-.31l-4.19-4.56a1.1 1.1 0 0 1 .07-1.57c.45-.42 1.16-.38 1.57.07l4.19 4.56a1.1 1.1 0 0 1-.07 1.57c-.31.28-.73.36-1.09.24zM1759.04 861.99c-.37-.12-.67-.43-.75-.84l-1.29-6.42c-.12-.6.27-1.19.87-1.31.6-.12 1.19.27 1.31.87l1.29 6.42a1.115 1.115 0 0 1-1.43 1.28zM1748.05 860.54a1.11 1.11 0 0 1-.65-1.57l2.93-5.73a1.112 1.112 0 1 1 1.98 1.01l-2.93 5.73c-.26.49-.83.72-1.33.56zM1867.35 844.87c.33-.01.65.11.89.33 9.15 8.48 1.69 17.27 1.61 17.36-.22.26-.55.41-.89.43-.32.01-.62-.1-.86-.31-.52-.45-.57-1.23-.12-1.75.25-.28 5.98-7.04-1.43-13.91-.24-.22-.38-.53-.4-.86a1.243 1.243 0 0 1 1.2-1.29z"></path><path fill="#f5b501" d="M1774.57 742.86c31.44-1.31 82.05 7.32 85.18 92.68 0 0 38.08-74.86-31.75-99.77-65.76-23.45-79.54 29.69-79.54 29.69s14.65-22.13 26.11-22.6z"></path><path fill="#fff" d="M1861.45 813.53s13.21 9.03-1.61 22.03c0 0-8.75-13.39 1.61-22.03z"></path><path fill="#fff" d="M1880.26 831.1s-5.18 15.75-20.68 3.96c0 0 10.26-12.33 20.68-3.96z"></path><path fill="#fff" d="M1872.47 852.96s-15.72 1.94-12.11-17.93c0 0 14.91 4.38 12.11 17.93z"></path><path fill="#fff" d="M1847.2 851.45s-5.45-15.56 13.74-16.82c-.01 0-.58 16.3-13.74 16.82z"></path><path fill="#fff" d="M1840.34 827.34s12.16-10.74 19.56 7.84c0 0-14.8 5.03-19.56-7.84z"></path><path fill="#f5b501" d="M1860.84 834.25c4.06-5.22.36-9.71.36-9.71-3.36 3.19-2.03 8.78-1.55 10.41-3.5-7.01-9.36-4.24-9.36-4.24 1.78 4.02 6.75 4.48 8.69 4.5-5.72 1.83-5.34 7.48-5.34 7.48 3.8-.41 5.89-4.33 6.76-6.5-.28 7.16 5.59 8.16 5.59 8.16.55-3.83-2.31-6.8-4.11-8.26 5.23 1.96 8.17-2.47 8.17-2.47-3.22-2.23-7.27-.48-9.21.63z"></path><path fill="#f26522" d="M1861.83 834.81c.12.89-.47 1.72-1.32 1.85-.84.13-1.63-.48-1.75-1.37-.12-.89.47-1.72 1.32-1.85.85-.14 1.64.48 1.75 1.37z"></path><path fill="#f5b501" d="M1769.79 978.4s-18.15 26.83 1.85 39.16c29.72 18.31 79.49-36.21 79.49-36.21s-44.44 61.55-80.21 44.62c-36.41-17.24-1.13-47.57-1.13-47.57z"></path><path fill="#f5b501" d="M1776.08 1028.97a7.494 7.494 0 0 1-8.12 6.83 7.494 7.494 0 0 1-6.83-8.12 7.494 7.494 0 0 1 8.12-6.83c4.13.36 7.19 4 6.83 8.12z"></path><path fill="#f5b501" d="M1773.58 1030.47c-1.89.94-3.61.66-5.25-.58-1.55-1.18-3.16-2.02-5.18-2-1.31.01-1.72.99-1.82 2.1.7 3.1 3.31 5.54 6.64 5.82 4.13.35 7.76-2.7 8.12-6.83.01-.1-.01-.2 0-.3-.77.7-1.59 1.32-2.51 1.79z" opacity=".5"></path><path fill="#ffca03" d="M713.13 664.51c-21.63 17.14-44.56 16.37-63.2 13.36 2.47-2.53 4.95-5.06 7.44-7.57-2.03-2.49-4.07-4.97-6.12-7.45.03-.1 31.8 4.95 43.83-3.15 1.27 1.87 2.53 3.74 3.79 5.61.01 0 6.41 1.58 14.26-.8z"></path><path fill="#f9d980" d="M447.12 784.94c-.04-.01-10.19 15.45-9.04 19.71-1.56-.71-3.13-1.43-4.7-2.13-1.3.17-2.6.35-3.9.53 0 0 2.38-12.46 7.75-21.07 1.29.9 2.58 1.81 3.87 2.72 2.01.07 4.01.16 6.02.24z"></path><path fill="#ffca03" d="M604.16 736.59c-.01 0 12.26.87 23.57 7.58-1.28 1.24-2.56 2.47-3.83 3.72l1.26 5.1c.02-.04-19.09-5.28-25.38-4.79-.53-2.14-1.07-4.29-1.6-6.43 1.99-1.73 3.98-3.46 5.98-5.18z"></path><path fill="#f9d980" d="M740.53 758.71c.01 0-7.99-6.72-18.52-10.26l.39 4.18c-1.11.24-2.22.49-3.33.74 0-.01 8.74 2.27 14.37 6.79.3-.72.6-1.44.91-2.16 2.05.24 4.12.47 6.18.71zM473.33 633.68c.1-.15 37.12 13.47 42.23 14.83-2.85.36-5.69.73-8.53 1.11 1.1 1.86 2.19 3.73 3.27 5.59.09-.16-39-11.9-43.55-12.45 1.89-1.11 3.79-2.21 5.69-3.31.3-1.92.6-3.85.89-5.77zM1328.82 1104.88c20.61-13.54 38.35-11.26 51.46-7.02-2.64 1.83-5.28 3.67-7.9 5.52.78 2.21 1.56 4.42 2.33 6.64.03-.03-22.39-6.73-33.58-.45-.45-1.6-.91-3.2-1.37-4.8 0-.01-4.43-1.62-10.94.11zM1581.27 1056.98c-.02-.02 16.06-7.88 17.48-11.35.85 1.07 1.7 2.15 2.55 3.22l3.34 1.02c-.01 0-8.64 8.15-17.3 12.63-.51-1.1-1.03-2.21-1.54-3.31-1.5-.74-3.01-1.48-4.53-2.21zM1435.36 1055.95s-9.47-2.6-16.47-9.53c1.46-.83 2.92-1.66 4.37-2.49.23-1.43.45-2.87.68-4.3.01-.01 13.88 7 19.11 7.69l-1.02 5.42c-2.23 1.07-4.45 2.14-6.67 3.21zM1329.02 1026.13s5.28 5.67 13.19 8.95l.66-3.48c.99-.17 1.98-.33 2.97-.49 0 0-6.77-2.19-10.51-6.05-.42.59-.83 1.18-1.25 1.77-1.68-.24-3.37-.47-5.06-.7zM1489.31 1163.41c.07-.03-18.91-19.14-22.1-21.15 2.12.32 4.23.65 6.35.99l.12-5.08c.07-.04 21.55 18.19 24.09 19.92l-5.28 1.11c-1.07 1.4-2.13 2.8-3.18 4.21zM1755.17 577.78c51.27.8 68.38 18.6 76.54 34.27-6.67-.09-13.34-.14-20.01-.15-3.16 3.23-6.31 6.46-9.43 9.7.04.03-15.11-26.41-40.77-28.08 2.45-2.3 4.92-4.59 7.39-6.89-.01.01-2.39-5.57-13.72-8.85zM2145.95 742.04c.03-.09 32.57 7.06 40.42 5.35-.96 1.71-1.91 3.41-2.87 5.12.67 1.29 1.34 2.59 2.01 3.88-.01-.03-24.42-.47-42.35-3.91 1.36-1.47 2.72-2.94 4.09-4.41-.43-2.01-.87-4.02-1.3-6.03zM1977.16 613.31c.02 0-6.27-10.89-.99-24.04 3.33.43 6.66.86 9.98 1.31 3.06-1.25 6.12-2.48 9.2-3.72 0 0 2.56 19.15 7.4 24.42-3.87 1.51-7.74 3.02-11.6 4.55-4.66-.85-9.32-1.69-13.99-2.52zM1912.81 489.67c-.01 0-5.79 10.54-3.32 20.89 2.64-1.02 5.28-2.03 7.92-3.04 1.48.7 2.96 1.39 4.44 2.09.01 0-3.32-8.22.44-15.5l-5.12.72c-1.45-1.72-2.9-3.44-4.36-5.16zM1854.03 777.24c-.07 0 7.32-37.68 6.92-42.58 2.11 2.09 4.21 4.17 6.31 6.27 2.88-1.94 5.76-3.87 8.66-5.79-.04 0-3.26 38.49-2.64 42.55-2.81-.98-5.62-1.95-8.44-2.91-3.61.81-7.22 1.63-10.81 2.46z"></path><path fill="#ffca03" d="M415.69 1094.23c51.27.8 68.38 18.6 76.54 34.27-6.67-.09-13.34-.14-20.01-.15-3.16 3.23-6.31 6.46-9.43 9.7.04.03-15.11-26.41-40.77-28.08 2.45-2.3 4.92-4.59 7.39-6.89-.01.01-2.4-5.57-13.72-8.85z"></path><path fill="#f9d980" d="M806.46 1258.49c.03-.09 32.57 7.06 40.42 5.36-.96 1.71-1.91 3.41-2.87 5.12.67 1.29 1.34 2.59 2.01 3.88-.01-.03-24.42-.47-42.35-3.92 1.36-1.47 2.72-2.94 4.09-4.41-.43-2.01-.86-4.02-1.3-6.03zM637.67 1129.76c.02 0-6.27-10.89-.99-24.04 3.33.43 6.65.86 9.98 1.31 3.06-1.25 6.12-2.48 9.2-3.72 0 0 2.56 19.15 7.4 24.42-3.87 1.51-7.74 3.02-11.6 4.55-4.65-.85-9.32-1.7-13.99-2.52zM573.33 1006.11c-.01 0-5.79 10.54-3.32 20.89 2.64-1.02 5.28-2.03 7.92-3.04 1.48.7 2.96 1.39 4.44 2.09.01 0-3.32-8.22.44-15.5l-5.12.72c-1.45-1.71-2.91-3.44-4.36-5.16zM514.54 1293.69c-.07 0 7.32-37.68 6.92-42.57 2.11 2.08 4.21 4.17 6.31 6.26 2.88-1.94 5.76-3.87 8.66-5.79-.04 0-3.26 38.49-2.64 42.55-2.81-.98-5.62-1.95-8.44-2.91-3.61.81-7.21 1.63-10.81 2.46z"></path><path fill="#ffca03" d="M2167.71 1340.33c-11.01-32.14 4.12-50.66 20.67-62.75 1.73 4.19 3.45 8.39 5.16 12.59 4.62.59 9.23 1.21 13.83 1.84-.11-.07-27.09 20.74-23.08 37.6-3.2-.57-6.4-1.13-9.61-1.68.01-.01-5.81 3.92-6.97 12.4z"></path><path fill="#f9d980" d="M2223.96 1023.07c.02 0-9.22-22.92-16.41-26.43 2.83-.39 5.66-.77 8.49-1.15l3.93-3.27c.02-.01 14.03 14.5 19.33 27.09-2.7-.06-5.4-.11-8.11-.16-2.41 1.3-4.82 2.61-7.23 3.92zM2140.77 1189.34c-.01.01-10.78 9.29-28.72 13.48-.83-2.11-1.67-4.22-2.5-6.33-2.77-1.03-5.54-2.05-8.32-3.06-.04-.04 22.07-12.08 26.49-17.66 3.49 1.38 6.97 2.77 10.44 4.17.87 3.13 1.74 6.26 2.61 9.4zM2020.53 1294.54c.01-.01 13.97-3.21 24.88-10.51-2.12-.84-4.24-1.68-6.37-2.52.24-1.21.49-2.41.74-3.62-.01 0-8.13 6.58-17.76 8.95l2.73 2.28c-1.42 1.81-2.82 3.61-4.22 5.42z"></path><path fill="#ffca03" d="M2386.32 1202.12c-.05-.22-49.86 6.23-55.85 8.45 2.08-2.15 4.16-4.3 6.25-6.45-3.22-1.34-6.45-2.66-9.69-3.98-.09-.22 49.86-10.5 55.04-11.88-.53 2.29-1.05 4.58-1.58 6.87 1.96 2.33 3.9 4.66 5.83 6.99zM901.13 1551.43c-7.33 33.39-29.28 44.93-48.74 51.2.44-4.47.9-8.95 1.36-13.42-3.71-2-7.44-3.98-11.18-5.95-.04-.11 33.19-11.07 38.29-27.82 2.57 1.62 5.12 3.25 7.67 4.88 0 .01 7.1-1.55 12.6-8.89z"></path><path fill="#f9d980" d="M737.86 1838.44c-.03 0 .7 24.1 4.47 28.92-1.9-.18-3.8-.35-5.7-.52-1.09.82-2.17 1.64-3.25 2.46.01 0-5.86-16.72-6.62-29.97 1.79.53 3.58 1.07 5.37 1.6l5.73-2.49zM851.24 1700.22c-.02.01 11.99-5.29 27.04-2.81-.36 2.23-.71 4.46-1.06 6.69 1.53 1.92 3.06 3.84 4.58 5.76 0-.05-21.26 3.36-26.78 7.22-1.93-2.42-3.87-4.84-5.82-7.25.67-3.21 1.35-6.41 2.04-9.61zM992.82 1654.46c.01 0-11.91-4.02-24.07-2.65 1.06 1.69 2.12 3.38 3.17 5.07-.87.92-1.74 1.85-2.6 2.78-.01 0 9.64-1.97 17.88.6-.2-1.08-.39-2.16-.59-3.23 2.06-.86 4.14-1.72 6.21-2.57zM654.2 1639.5c.04-.21 45.29-2.16 51.06-3.11-2.39 1.88-4.78 3.76-7.16 5.65 2.44 1.72 4.87 3.45 7.29 5.19.01-.22-45.64 4.96-50.4 6.51.94-2.27 1.88-4.55 2.83-6.82a2528 2528 0 0 0-3.62-7.42zM1298.17 1273.43c-7.34 33.39-29.28 44.93-48.74 51.2.44-4.47.9-8.95 1.36-13.42-3.71-2-7.44-3.98-11.18-5.95-.04-.11 33.19-11.07 38.29-27.82 2.57 1.62 5.12 3.25 7.67 4.88.01 0 7.11-1.56 12.6-8.89zM1134.9 1560.43c-.02.01.7 24.1 4.47 28.92-1.9-.18-3.8-.35-5.7-.52-1.09.82-2.17 1.64-3.25 2.46.01 0-5.86-16.72-6.62-29.97 1.79.53 3.58 1.07 5.37 1.6l5.73-2.49zM1248.28 1422.21c-.02.01 11.99-5.29 27.04-2.81-.36 2.23-.71 4.46-1.06 6.69 1.53 1.92 3.06 3.84 4.58 5.76-.01-.04-21.26 3.36-26.78 7.22-1.93-2.42-3.87-4.83-5.82-7.25.67-3.2 1.35-6.41 2.04-9.61zM1389.87 1376.45c.01 0-11.91-4.02-24.07-2.65 1.06 1.69 2.12 3.38 3.17 5.07-.87.93-1.74 1.85-2.6 2.78-.01 0 9.64-1.97 17.88.6-.2-1.08-.39-2.16-.59-3.24 2.06-.85 4.13-1.71 6.21-2.56zM1051.24 1361.5c.04-.21 45.29-2.16 51.06-3.11-2.4 1.88-4.78 3.76-7.16 5.65 2.44 1.72 4.87 3.45 7.29 5.19.01-.22-45.64 4.96-50.39 6.51.94-2.27 1.88-4.55 2.83-6.82-1.21-2.48-2.42-4.95-3.63-7.42zM2507.68 1398.46c-15.09 30.8-40.05 36.93-61.25 38.53 1.48-4.26 2.97-8.51 4.47-12.76-3.31-2.8-6.64-5.59-9.98-8.37-.02-.12 36.24-3.09 45.25-18.21 2.23 2.17 4.46 4.35 6.67 6.54.01-.01 7.58.12 14.84-5.73zM2275.32 1640.31c-.03 0-4.96 23.63-2.25 29.18l-5.67-1.8c-1.3.55-2.59 1.1-3.88 1.65.01 0-2.02-17.62.33-30.69 1.69.92 3.38 1.85 5.07 2.78 2.13-.37 4.27-.75 6.4-1.12zM2422.78 1531.72c-.02 0 13.42-2.38 28.19 3.53-.88 2.09-1.75 4.18-2.62 6.27 1.12 2.22 2.24 4.45 3.35 6.67 0-.05-22.44-1.67-28.95.81-1.41-2.8-2.83-5.6-4.26-8.4 1.42-2.96 2.85-5.92 4.29-8.88zM2577.68 1520.35c.01 0-11.26-6.75-24-8.28.7 1.9 1.4 3.79 2.09 5.69-1.1.7-2.19 1.39-3.29 2.09-.01-.01 10.3.35 18.13 4.82.04-1.1.09-2.19.13-3.29 2.31-.36 4.62-.7 6.94-1.03zM2237.39 1427.59c.07-.2 46.15 8.15 52.21 8.55-2.86 1.28-5.7 2.57-8.54 3.87 2.06 2.23 4.11 4.47 6.15 6.71.05-.22-47.21-5.52-52.35-5.08 1.48-2 2.96-4 4.45-6-.63-2.69-1.27-5.37-1.92-8.05zM1018.48 875.8c-23.6-9.05-27.72-21.45-27.76-31.93 3.3 1 6.6 2.01 9.89 3.02 2.41-1.4 4.82-2.8 7.24-4.2-.01.01.42 17.64 12.02 22.95-1.79.91-3.59 1.82-5.38 2.73-.01.01-.38 3.61 3.99 7.43zM839.07 743.56c.02-.03-19.44-3.77-24.57-2.32.77-1.09 1.54-2.18 2.31-3.26-.29-.78-.58-1.55-.87-2.33 0-.01 15.36-.55 26.15 1.44l-3.1 2.77c.04 1.23.06 2.46.08 3.7zM915.85 827.57c.01 0 1.21 7.04-4.03 14.63-1.65-.49-3.31-.97-4.97-1.46-1.83.56-3.66 1.12-5.48 1.69-.01 0 2.09-11.8.44-15.28 2.34-.69 4.69-1.38 7.04-2.06 2.34.83 4.67 1.65 7 2.48zM924.14 907.38s4.76-5.82 5.66-12.26l-4.37 1.11-1.71-1.65s-.03 5.23-3.19 9.3c.85 0 1.7 0 2.55.01.36 1.15.71 2.32 1.06 3.49zM1023.56 744.03c-.06-.02-14.9 20.81-15.92 23.77-.62-1.53-1.23-3.06-1.85-4.59-2.16.72-4.32 1.44-6.47 2.16-.05-.01 12.27-22.12 13.12-24.57 1.38.99 2.75 1.98 4.12 2.98 2.34.07 4.67.16 7 .25z"></path><path fill="#f5b501" d="M2398.9 2231.79c-9.6 0-14.5-5.61-18.82-10.56-4.17-4.77-7.77-8.89-15.16-8.89-7.39 0-10.99 4.12-15.16 8.89-4.32 4.95-9.22 10.56-18.82 10.56s-14.5-5.61-18.82-10.56c-4.17-4.77-7.77-8.89-15.15-8.89-7.39 0-10.99 4.12-15.15 8.89-4.32 4.95-9.22 10.56-18.81 10.56-9.6 0-14.49-5.61-18.82-10.56-4.17-4.77-7.77-8.89-15.15-8.89-1.34 0-2.43-1.09-2.43-2.43s1.09-2.43 2.43-2.43c9.6 0 14.49 5.61 18.82 10.56 4.17 4.77 7.77 8.89 15.15 8.89 7.39 0 10.99-4.12 15.15-8.89 4.32-4.95 9.22-10.56 18.82-10.56s14.49 5.61 18.82 10.56c4.17 4.77 7.77 8.89 15.15 8.89 7.39 0 10.99-4.12 15.16-8.89 4.32-4.95 9.22-10.56 18.82-10.56s14.5 5.61 18.82 10.56c4.17 4.77 7.77 8.89 15.16 8.89 1.34 0 2.43 1.09 2.43 2.43a2.448 2.448 0 0 1-2.44 2.43zM2398.9 2264.08c-9.6 0-14.5-5.61-18.82-10.56-4.17-4.77-7.77-8.89-15.16-8.89-7.39 0-10.99 4.12-15.16 8.89-4.32 4.95-9.22 10.56-18.82 10.56s-14.5-5.61-18.82-10.56c-4.17-4.77-7.77-8.89-15.15-8.89-7.39 0-10.99 4.12-15.15 8.89-4.32 4.95-9.22 10.56-18.81 10.56-9.6 0-14.49-5.61-18.82-10.56-4.17-4.77-7.77-8.89-15.15-8.89-1.34 0-2.43-1.09-2.43-2.43s1.09-2.43 2.43-2.43c9.6 0 14.49 5.61 18.82 10.56 4.17 4.77 7.77 8.89 15.15 8.89 7.39 0 10.99-4.12 15.15-8.89 4.32-4.95 9.22-10.56 18.82-10.56s14.49 5.61 18.82 10.56c4.17 4.77 7.77 8.89 15.15 8.89 7.39 0 10.99-4.12 15.16-8.89 4.32-4.95 9.22-10.56 18.82-10.56s14.5 5.61 18.82 10.56c4.17 4.77 7.77 8.89 15.16 8.89 1.34 0 2.43 1.09 2.43 2.43a2.448 2.448 0 0 1-2.44 2.43zM2296.49 554.84c0 9.6-5.61 14.5-10.56 18.82-4.77 4.17-8.89 7.77-8.89 15.16 0 7.39 4.12 10.99 8.89 15.16 4.95 4.32 10.56 9.22 10.56 18.82s-5.61 14.49-10.56 18.82c-4.77 4.17-8.89 7.77-8.89 15.15s4.12 10.99 8.89 15.15c4.95 4.32 10.56 9.22 10.56 18.81 0 9.6-5.61 14.49-10.56 18.82-4.77 4.17-8.89 7.77-8.89 15.15 0 1.34-1.09 2.43-2.43 2.43s-2.43-1.09-2.43-2.43c0-9.6 5.61-14.5 10.56-18.82 4.77-4.17 8.89-7.77 8.89-15.15 0-7.39-4.12-10.98-8.89-15.15-4.95-4.32-10.56-9.22-10.56-18.82s5.61-14.49 10.56-18.82c4.77-4.17 8.89-7.77 8.89-15.15 0-7.39-4.12-10.99-8.89-15.16-4.95-4.32-10.56-9.22-10.56-18.82s5.61-14.5 10.56-18.82c4.77-4.17 8.89-7.77 8.89-15.16 0-1.34 1.09-2.43 2.43-2.43 1.34.01 2.43 1.09 2.43 2.44z"></path><path fill="#f9d980" d="m958.13 2045.16-83.81-71.05v142.09zM2452.89 812.32c-46.17 0-83.58 37.45-83.58 83.62s37.41 83.62 83.58 83.62c46.21 0 83.62-37.45 83.62-83.62s-37.41-83.62-83.62-83.62zm0 141.87c-32.14 0-58.21-26.11-58.21-58.25 0-32.18 26.07-58.25 58.21-58.25 32.18 0 58.25 26.07 58.25 58.25-.01 32.14-26.07 58.25-58.25 58.25zM2289.28 999.13l-27.78-17.57-3.4 30.25-4.78 42.56c-4.51-2.08-10.5-2.83-17.04-1.71-13.59 2.31-24.33 11.69-23.99 20.95.34 9.26 11.62 14.89 25.21 12.58 13.59-2.31 24.33-11.69 23.99-20.95v-54.8l27.79-11.31zM1588.75 804.3l-27.78-17.57-3.4 30.25-4.78 42.56c-4.51-2.08-10.5-2.82-17.04-1.71-13.59 2.31-24.33 11.69-23.99 20.95.34 9.26 11.62 14.89 25.21 12.58 13.59-2.31 24.33-11.69 23.99-20.95v-54.8l27.79-11.31zM678.2 1647.88h-59.55l-5.58 29.93-7.85 42.1c-4.35-2.41-10.27-3.58-16.87-2.94-13.72 1.32-25.11 9.9-25.45 19.16-.33 9.26 10.52 15.69 24.23 14.37 13.72-1.32 25.11-9.9 25.45-19.16l10.56-74.48 55.06-8.98z"></path><path fill="#f9d980" d="m676.55 1647.88-5.58 29.93-7.85 42.1c-4.35-2.41-10.27-3.58-16.87-2.94-13.72 1.32-25.11 9.9-25.45 19.16-.33 9.26 10.52 15.69 24.24 14.37 13.72-1.32 25.11-9.9 25.45-19.16l6.06-83.46zM1498.08 1445.91l-57.63 14.99 2.13 30.37 3 42.72c-4.81-1.23-10.84-.88-17.06 1.4-12.94 4.73-21.81 15.9-19.8 24.95 2.01 9.04 14.13 12.54 27.07 7.81 12.94-4.73 21.81-15.9 19.81-24.95l-8.53-74.74 51.01-22.55z"></path><path fill="#f9d980" d="m1496.49 1446.33 2.13 30.37 3 42.72c-4.81-1.23-10.84-.88-17.06 1.4-12.94 4.73-21.81 15.9-19.8 24.95 2.01 9.04 14.13 12.54 27.07 7.81 12.94-4.73 21.81-15.9 19.8-24.95l-15.14-82.3z"></path><path fill="#e8ddc5" d="m448.9 2180.92 598.02-5.91c14.36-.14 26.12 11.38 26.26 25.74l3.07 310.98c.14 14.36-11.38 26.12-25.74 26.26l-598.02 5.91c-14.36.14-26.12-11.38-26.26-25.74l-3.07-310.98c-.15-14.36 11.38-26.12 25.74-26.26z"></path><path fill="#e8ddc5" d="M670.78 2201.32c-.36-36.57 29.1-66.61 65.66-66.97l65.38-.65c36.57-.36 66.61 29.1 66.98 65.66l.39 39.27-198.02 1.96-.39-39.27zm178.95-1.77c-.26-26.06-21.67-47.04-47.72-46.79l-65.38.65c-26.06.26-47.04 21.66-46.79 47.72l.2 20.2 159.88-1.58-.19-20.2z"></path><path fill="#f4ede1" d="m471.92 2189.75 598.02-5.91c14.36-.14 26.12 11.38 26.26 25.74l3.07 310.98c.14 14.36-11.38 26.12-25.74 26.26l-598.02 5.91c-14.36.14-26.12-11.38-26.26-25.74l-3.07-310.98c-.14-14.36 11.38-26.11 25.74-26.26z"></path><path fill="#e8ddc5" d="m906.98 2197.28 155.98-1.54c9.58-.09 17.42 7.59 17.52 17.18l2.93 296.23c.09 9.58-7.6 17.42-17.18 17.52l-155.98 1.54c-9.58.09-17.42-7.6-17.52-17.18l-2.93-296.23c-.09-9.59 7.6-17.43 17.18-17.52z"></path><path fill="#f9f5ed" d="M943.34 2290.88c.25 25.29 20.96 45.6 46.25 45.35s45.6-20.96 45.35-46.25-20.96-45.6-46.25-45.35c-25.29.24-45.6 20.95-45.35 46.25z"></path><path fill="#e8ddc5" d="M1015.29 2290.17c-.14-14.44-11.97-26.03-26.41-25.89-14.44.14-26.03 11.97-25.89 26.41.14 14.44 11.97 26.03 26.41 25.89 14.44-.15 26.03-11.97 25.89-26.41z"></path><circle cx="990.36" cy="2413.53" r="74.14" fill="#f9f5ed" transform="rotate(-5.705 990.843 2414.57)"></circle><circle cx="990.36" cy="2413.53" r="42.33" fill="#e8ddc5" transform="rotate(-14.749 990.185 2413.185)"></circle><path fill="#e8ddc5" d="m477.59 2201.52 155.98-1.54c9.58-.09 17.42 7.59 17.52 17.18l2.93 296.23c.09 9.58-7.59 17.42-17.18 17.52l-155.98 1.54c-9.58.09-17.42-7.6-17.52-17.18l-2.93-296.23c-.09-9.58 7.6-17.43 17.18-17.52z"></path><path fill="#f9f5ed" d="M513.96 2295.12c.25 25.29 20.96 45.6 46.25 45.35s45.6-20.96 45.35-46.25-20.96-45.6-46.25-45.35c-25.3.25-45.6 20.95-45.35 46.25z"></path><path fill="#e8ddc5" d="M585.91 2294.41c-.14-14.44-11.97-26.03-26.41-25.89-14.44.14-26.03 11.97-25.89 26.41.14 14.44 11.96 26.03 26.41 25.89 14.44-.15 26.03-11.97 25.89-26.41z"></path><circle cx="560.97" cy="2417.77" r="74.14" fill="#f9f5ed" transform="rotate(-8.783 560.934 2417.624)"></circle><circle cx="560.97" cy="2417.77" r="42.33" fill="#e8ddc5" transform="rotate(-68.924 560.908 2417.727)"></circle><path fill="#e8ddc5" d="M665.49 2421.59h217.42v107.95H665.49z" transform="rotate(179.427 774.21 2475.565) scale(1.00005)"></path><path fill="#ffca03" d="M692.61 2198.61h158.81v109.92H692.61z" transform="matrix(-1 .00988 -.00988 -1 1566.253 4499.405)"></path><path fill="#f9f5ed" d="m740.19 2230.87 19.17-15.57 5.22 22.27 7.34 31.33c3.18-1.95 7.58-3.04 12.56-2.79 10.34.52 19.19 6.57 19.76 13.51.57 6.94-7.35 12.14-17.7 11.62-10.34-.52-19.19-6.57-19.76-13.51l-4.86-40.89-21.73-5.97z"></path><path fill="#e8ddc5" d="M853.88 2328.9h20.49v79.01h-20.49z" transform="matrix(-1 .0099 -.0099 -1 1751.627 4728.15)"></path><path fill="#e8ddc5" d="M823.78 2329.2h20.49v79.01h-20.49z" transform="matrix(-1 .0099 -.0099 -1 1691.443 4729.042)"></path><path fill="#e8ddc5" d="M793.69 2329.5h20.49v79.01h-20.49z" transform="matrix(-1 .00986 -.00986 -1 1631.193 4729.958)"></path><path fill="#e8ddc5" d="M763.59 2329.79h20.49v79.01h-20.49z" transform="matrix(-1 .01 -.01 -1 1571.336 4730.743)"></path><path fill="#e8ddc5" d="M733.5 2330.09h20.49v79.01H733.5z" transform="matrix(-1 .0099 -.0099 -1 1510.89 4731.72)"></path><path fill="#e8ddc5" d="M703.4 2330.39h20.49v79.01H703.4z" transform="matrix(-1 .0099 -.0099 -1 1450.705 4732.611)"></path><path fill="#e8ddc5" d="M673.31 2330.68h20.49v79.01h-20.49z" transform="rotate(179.427 683.56 2370.19) scale(1.00005)"></path></svg>