<svg xmlns="http://www.w3.org/2000/svg" xmlns:xlink="http://www.w3.org/1999/xlink" enable-background="new 0 0 1200 1200" viewBox="0 0 1200 1200" id="saxophonist-playing-saxophone-wearing-golden-glasses"><path fill="#c5e7fc" d="M980.234 505.498c11.39 103.944-70.938 183.197-85.171 196.898-59.827 57.592-100.735 45.384-190.035 88.683-181.516 88.012-170.841 215.228-293.921 233.11-95.245 13.839-207.33-46.987-240.711-126.69-30.88-73.73 26.847-112.856-2.534-200.171-32.079-95.333-113.179-85.195-152.028-179.9-36.346-88.604-5.108-194.377 43.075-263.516 10.216-14.659 90.477-126.376 210.306-129.224 110.659-2.63 125.569 90.663 288.854 139.359 120.467 35.927 145.735-4.898 243.245 40.541 29.173 13.596 165.349 77.053 178.92 200.91z"></path><g opacity=".44"><defs><path id="a" d="M980.234 505.498c11.39 103.944-70.938 183.197-85.171 196.898-59.827 57.592-100.735 45.384-190.035 88.683-181.516 88.012-170.841 215.228-293.921 233.11-95.245 13.839-207.33-46.987-240.711-126.69-30.88-73.73 26.847-112.856-2.534-200.171-32.079-95.333-113.179-85.195-152.028-179.9-36.346-88.604-5.108-194.377 43.075-263.516 10.216-14.659 90.477-126.376 210.306-129.224 110.659-2.63 125.569 90.663 288.854 139.359 120.467 35.927 145.735-4.898 243.245 40.541 29.173 13.596 165.349 77.053 178.92 200.91z" opacity=".44"></path></defs><clipPath id="b"><use overflow="visible" xlink:href="#a"></use></clipPath><g clip-path="url(#b)"><path fill="#f1f2f2" d="M1030.486 1042.036c0 3.159-2.557 5.715-5.68 5.715H928.74c-3.123 0-5.68-2.557-5.68-5.715v-40.619c0-3.159 2.557-5.734 5.68-5.734h96.067c3.123 0 5.68 2.575 5.68 5.734v40.619zM915.955 1042.036c0 3.159-2.538 5.715-5.68 5.715h-96.048c-3.142 0-5.68-2.557-5.68-5.715v-40.619c0-3.159 2.538-5.734 5.68-5.734h96.048c3.142 0 5.68 2.575 5.68 5.734v40.619zM801.433 1042.036c0 3.159-2.54 5.715-5.68 5.715h-96.05c-3.14 0-5.68-2.557-5.68-5.715v-40.619c0-3.159 2.54-5.734 5.68-5.734h96.05c3.14 0 5.68 2.575 5.68 5.734v40.619zM686.918 1042.036c0 3.159-2.547 5.715-5.689 5.715h-96.048c-3.142 0-5.68-2.557-5.68-5.715v-40.619c0-3.159 2.538-5.734 5.68-5.734h96.048c3.142 0 5.689 2.575 5.689 5.734v40.619zM572.396 1042.036c0 3.159-2.547 5.715-5.68 5.715h-96.058c-3.133 0-5.68-2.557-5.68-5.715v-40.619c0-3.159 2.547-5.734 5.68-5.734h96.058c3.133 0 5.68 2.575 5.68 5.734v40.619zM457.874 1042.036c0 3.159-2.549 5.715-5.68 5.715h-96.059c-3.133 0-5.68-2.557-5.68-5.715v-40.619c0-3.159 2.547-5.734 5.68-5.734h96.059c3.131 0 5.68 2.575 5.68 5.734v40.619zM343.35 1042.036c0 3.159-2.538 5.715-5.68 5.715h-96.058c-3.133 0-5.68-2.557-5.68-5.715v-40.619c0-3.159 2.547-5.734 5.68-5.734h96.058c3.142 0 5.68 2.575 5.68 5.734v40.619zM228.828 1042.036c0 3.159-2.538 5.715-5.68 5.715h-96.05c-3.14 0-5.68-2.557-5.68-5.715v-40.619c0-3.159 2.539-5.734 5.68-5.734h96.05c3.142 0 5.68 2.575 5.68 5.734v40.619zM114.306 1042.036c0 3.159-2.54 5.715-5.68 5.715h-96.05c-3.142 0-5.68-2.557-5.68-5.715v-40.619c0-3.159 2.538-5.734 5.68-5.734h96.05c3.14 0 5.68 2.575 5.68 5.734v40.619zM-.218 1042.036c0 3.159-2.538 5.715-5.68 5.715h-96.048c-3.142 0-5.68-2.557-5.68-5.715v-40.619c0-3.159 2.538-5.734 5.68-5.734h96.048c3.142 0 5.68 2.575 5.68 5.734v40.619zM1030.486 923.923c0 3.161-2.557 5.736-5.68 5.736H928.74c-3.123 0-5.68-2.575-5.68-5.736v-40.617c0-3.161 2.557-5.717 5.68-5.717h96.067c3.123 0 5.68 2.557 5.68 5.717v40.617zM915.955 923.923c0 3.161-2.538 5.736-5.68 5.736h-96.048c-3.142 0-5.68-2.575-5.68-5.736v-40.617c0-3.161 2.538-5.717 5.68-5.717h96.048c3.142 0 5.68 2.557 5.68 5.717v40.617zM801.433 923.923c0 3.161-2.54 5.736-5.68 5.736h-96.05c-3.14 0-5.68-2.575-5.68-5.736v-40.617c0-3.161 2.54-5.717 5.68-5.717h96.05c3.14 0 5.68 2.557 5.68 5.717v40.617zM686.918 923.923c0 3.161-2.547 5.736-5.689 5.736h-96.048c-3.142 0-5.68-2.575-5.68-5.736v-40.617c0-3.161 2.538-5.717 5.68-5.717h96.048c3.142 0 5.689 2.557 5.689 5.717v40.617zM572.396 923.923c0 3.161-2.547 5.736-5.68 5.736h-96.058c-3.133 0-5.68-2.575-5.68-5.736v-40.617c0-3.161 2.547-5.717 5.68-5.717h96.058c3.133 0 5.68 2.557 5.68 5.717v40.617zM457.874 923.923c0 3.161-2.549 5.736-5.68 5.736h-96.059c-3.133 0-5.68-2.575-5.68-5.736v-40.617c0-3.161 2.547-5.717 5.68-5.717h96.059c3.131 0 5.68 2.557 5.68 5.717v40.617zM343.35 923.923c0 3.161-2.538 5.736-5.68 5.736h-96.058c-3.133 0-5.68-2.575-5.68-5.736v-40.617c0-3.161 2.547-5.717 5.68-5.717h96.058c3.142 0 5.68 2.557 5.68 5.717v40.617zM228.828 923.923c0 3.161-2.538 5.736-5.68 5.736h-96.05c-3.14 0-5.68-2.575-5.68-5.736v-40.617c0-3.161 2.539-5.717 5.68-5.717h96.05c3.142 0 5.68 2.557 5.68 5.717v40.617zM114.306 923.923c0 3.161-2.54 5.736-5.68 5.736h-96.05c-3.142 0-5.68-2.575-5.68-5.736v-40.617c0-3.161 2.538-5.717 5.68-5.717h96.05c3.14 0 5.68 2.557 5.68 5.717v40.617zM-.218 923.923c0 3.161-2.538 5.736-5.68 5.736h-96.048c-3.142 0-5.68-2.575-5.68-5.736v-40.617c0-3.161 2.538-5.717 5.68-5.717h96.048c3.142 0 5.68 2.557 5.68 5.717v40.617zM1030.486 805.83c0 3.159-2.557 5.717-5.68 5.717H928.74c-3.123 0-5.68-2.558-5.68-5.717v-40.619c0-3.159 2.557-5.734 5.68-5.734h96.067c3.123 0 5.68 2.575 5.68 5.734v40.619zM915.955 805.83c0 3.159-2.538 5.717-5.68 5.717h-96.048c-3.142 0-5.68-2.558-5.68-5.717v-40.619c0-3.159 2.538-5.734 5.68-5.734h96.048c3.142 0 5.68 2.575 5.68 5.734v40.619zM801.433 805.83c0 3.159-2.54 5.717-5.68 5.717h-96.05c-3.14 0-5.68-2.558-5.68-5.717v-40.619c0-3.159 2.54-5.734 5.68-5.734h96.05c3.14 0 5.68 2.575 5.68 5.734v40.619zM686.918 805.83c0 3.159-2.547 5.717-5.689 5.717h-96.048c-3.142 0-5.68-2.558-5.68-5.717v-40.619c0-3.159 2.538-5.734 5.68-5.734h96.048c3.142 0 5.689 2.575 5.689 5.734v40.619zM572.396 805.83c0 3.159-2.547 5.717-5.68 5.717h-96.058c-3.133 0-5.68-2.558-5.68-5.717v-40.619c0-3.159 2.547-5.734 5.68-5.734h96.058c3.133 0 5.68 2.575 5.68 5.734v40.619zM457.874 805.83c0 3.159-2.549 5.717-5.68 5.717h-96.059c-3.133 0-5.68-2.558-5.68-5.717v-40.619c0-3.159 2.547-5.734 5.68-5.734h96.059c3.131 0 5.68 2.575 5.68 5.734v40.619zM343.35 805.83c0 3.159-2.538 5.717-5.68 5.717h-96.058c-3.133 0-5.68-2.558-5.68-5.717v-40.619c0-3.159 2.547-5.734 5.68-5.734h96.058c3.142 0 5.68 2.575 5.68 5.734v40.619zM228.828 805.83c0 3.159-2.538 5.717-5.68 5.717h-96.05c-3.14 0-5.68-2.558-5.68-5.717v-40.619c0-3.159 2.539-5.734 5.68-5.734h96.05c3.142 0 5.68 2.575 5.68 5.734v40.619zM114.306 805.83c0 3.159-2.54 5.717-5.68 5.717h-96.05c-3.142 0-5.68-2.558-5.68-5.717v-40.619c0-3.159 2.538-5.734 5.68-5.734h96.05c3.14 0 5.68 2.575 5.68 5.734v40.619zM-.218 805.83c0 3.159-2.538 5.717-5.68 5.717h-96.048c-3.142 0-5.68-2.558-5.68-5.717v-40.619c0-3.159 2.538-5.734 5.68-5.734h96.048c3.142 0 5.68 2.575 5.68 5.734v40.619zM1030.486 687.719c0 3.159-2.557 5.734-5.68 5.734H928.74c-3.123 0-5.68-2.575-5.68-5.734V647.1c0-3.161 2.557-5.717 5.68-5.717h96.067c3.123 0 5.68 2.557 5.68 5.717v40.619zM915.955 687.719c0 3.159-2.538 5.734-5.68 5.734h-96.048c-3.142 0-5.68-2.575-5.68-5.734V647.1c0-3.161 2.538-5.717 5.68-5.717h96.048c3.142 0 5.68 2.557 5.68 5.717v40.619zM801.433 687.719c0 3.159-2.54 5.734-5.68 5.734h-96.05c-3.14 0-5.68-2.575-5.68-5.734V647.1c0-3.161 2.54-5.717 5.68-5.717h96.05c3.14 0 5.68 2.557 5.68 5.717v40.619zM686.918 687.719c0 3.159-2.547 5.734-5.689 5.734h-96.048c-3.142 0-5.68-2.575-5.68-5.734V647.1c0-3.161 2.538-5.717 5.68-5.717h96.048c3.142 0 5.689 2.557 5.689 5.717v40.619zM572.396 687.719c0 3.159-2.547 5.734-5.68 5.734h-96.058c-3.133 0-5.68-2.575-5.68-5.734V647.1c0-3.161 2.547-5.717 5.68-5.717h96.058c3.133 0 5.68 2.557 5.68 5.717v40.619zM457.874 687.719c0 3.159-2.549 5.734-5.68 5.734h-96.059c-3.133 0-5.68-2.575-5.68-5.734V647.1c0-3.161 2.547-5.717 5.68-5.717h96.059c3.131 0 5.68 2.557 5.68 5.717v40.619zM343.35 687.719c0 3.159-2.538 5.734-5.68 5.734h-96.058c-3.133 0-5.68-2.575-5.68-5.734V647.1c0-3.161 2.547-5.717 5.68-5.717h96.058c3.142 0 5.68 2.557 5.68 5.717v40.619zM228.828 687.719c0 3.159-2.538 5.734-5.68 5.734h-96.05c-3.14 0-5.68-2.575-5.68-5.734V647.1c0-3.161 2.539-5.717 5.68-5.717h96.05c3.142 0 5.68 2.557 5.68 5.717v40.619zM114.306 687.719c0 3.159-2.54 5.734-5.68 5.734h-96.05c-3.142 0-5.68-2.575-5.68-5.734V647.1c0-3.161 2.538-5.717 5.68-5.717h96.05c3.14 0 5.68 2.557 5.68 5.717v40.619zM-.218 687.719c0 3.159-2.538 5.734-5.68 5.734h-96.048c-3.142 0-5.68-2.575-5.68-5.734V647.1c0-3.161 2.538-5.717 5.68-5.717h96.048c3.142 0 5.68 2.557 5.68 5.717v40.619zM1030.486 569.625c0 3.161-2.557 5.717-5.68 5.717H928.74c-3.123 0-5.68-2.557-5.68-5.717v-40.619c0-3.159 2.557-5.734 5.68-5.734h96.067c3.123 0 5.68 2.575 5.68 5.734v40.619zM915.955 569.625c0 3.161-2.538 5.717-5.68 5.717h-96.048c-3.142 0-5.68-2.557-5.68-5.717v-40.619c0-3.159 2.538-5.734 5.68-5.734h96.048c3.142 0 5.68 2.575 5.68 5.734v40.619zM801.433 569.625c0 3.161-2.54 5.717-5.68 5.717h-96.05c-3.14 0-5.68-2.557-5.68-5.717v-40.619c0-3.159 2.54-5.734 5.68-5.734h96.05c3.14 0 5.68 2.575 5.68 5.734v40.619zM686.918 569.625c0 3.161-2.547 5.717-5.689 5.717h-96.048c-3.142 0-5.68-2.557-5.68-5.717v-40.619c0-3.159 2.538-5.734 5.68-5.734h96.048c3.142 0 5.689 2.575 5.689 5.734v40.619zM572.396 569.625c0 3.161-2.547 5.717-5.68 5.717h-96.058c-3.133 0-5.68-2.557-5.68-5.717v-40.619c0-3.159 2.547-5.734 5.68-5.734h96.058c3.133 0 5.68 2.575 5.68 5.734v40.619zM457.874 569.625c0 3.161-2.549 5.717-5.68 5.717h-96.059c-3.133 0-5.68-2.557-5.68-5.717v-40.619c0-3.159 2.547-5.734 5.68-5.734h96.059c3.131 0 5.68 2.575 5.68 5.734v40.619zM343.35 569.625c0 3.161-2.538 5.717-5.68 5.717h-96.058c-3.133 0-5.68-2.557-5.68-5.717v-40.619c0-3.159 2.547-5.734 5.68-5.734h96.058c3.142 0 5.68 2.575 5.68 5.734v40.619zM228.828 569.625c0 3.161-2.538 5.717-5.68 5.717h-96.05c-3.14 0-5.68-2.557-5.68-5.717v-40.619c0-3.159 2.539-5.734 5.68-5.734h96.05c3.142 0 5.68 2.575 5.68 5.734v40.619zM114.306 569.625c0 3.161-2.54 5.717-5.68 5.717h-96.05c-3.142 0-5.68-2.557-5.68-5.717v-40.619c0-3.159 2.538-5.734 5.68-5.734h96.05c3.14 0 5.68 2.575 5.68 5.734v40.619zM-.218 569.625c0 3.161-2.538 5.717-5.68 5.717h-96.048c-3.142 0-5.68-2.557-5.68-5.717v-40.619c0-3.159 2.538-5.734 5.68-5.734h96.048c3.142 0 5.68 2.575 5.68 5.734v40.619zM1030.486 451.514c0 3.159-2.557 5.734-5.68 5.734H928.74c-3.123 0-5.68-2.575-5.68-5.734v-40.619c0-3.159 2.557-5.717 5.68-5.717h96.067c3.123 0 5.68 2.558 5.68 5.717v40.619zM915.955 451.514c0 3.159-2.538 5.734-5.68 5.734h-96.048c-3.142 0-5.68-2.575-5.68-5.734v-40.619c0-3.159 2.538-5.717 5.68-5.717h96.048c3.142 0 5.68 2.558 5.68 5.717v40.619zM801.433 451.514c0 3.159-2.54 5.734-5.68 5.734h-96.05c-3.14 0-5.68-2.575-5.68-5.734v-40.619c0-3.159 2.54-5.717 5.68-5.717h96.05c3.14 0 5.68 2.558 5.68 5.717v40.619zM686.918 451.514c0 3.159-2.547 5.734-5.689 5.734h-96.048c-3.142 0-5.68-2.575-5.68-5.734v-40.619c0-3.159 2.538-5.717 5.68-5.717h96.048c3.142 0 5.689 2.558 5.689 5.717v40.619zM572.396 451.514c0 3.159-2.547 5.734-5.68 5.734h-96.058c-3.133 0-5.68-2.575-5.68-5.734v-40.619c0-3.159 2.547-5.717 5.68-5.717h96.058c3.133 0 5.68 2.558 5.68 5.717v40.619zM457.874 451.514c0 3.159-2.549 5.734-5.68 5.734h-96.059c-3.133 0-5.68-2.575-5.68-5.734v-40.619c0-3.159 2.547-5.717 5.68-5.717h96.059c3.131 0 5.68 2.558 5.68 5.717v40.619zM343.35 451.514c0 3.159-2.538 5.734-5.68 5.734h-96.058c-3.133 0-5.68-2.575-5.68-5.734v-40.619c0-3.159 2.547-5.717 5.68-5.717h96.058c3.142 0 5.68 2.558 5.68 5.717v40.619zM228.828 451.514c0 3.159-2.538 5.734-5.68 5.734h-96.05c-3.14 0-5.68-2.575-5.68-5.734v-40.619c0-3.159 2.539-5.717 5.68-5.717h96.05c3.142 0 5.68 2.558 5.68 5.717v40.619zM114.306 451.514c0 3.159-2.54 5.734-5.68 5.734h-96.05c-3.142 0-5.68-2.575-5.68-5.734v-40.619c0-3.159 2.538-5.717 5.68-5.717h96.05c3.14 0 5.68 2.558 5.68 5.717v40.619zM-.218 451.514c0 3.159-2.538 5.734-5.68 5.734h-96.048c-3.142 0-5.68-2.575-5.68-5.734v-40.619c0-3.159 2.538-5.717 5.68-5.717h96.048c3.142 0 5.68 2.558 5.68 5.717v40.619zM1030.486 333.42c0 3.161-2.557 5.717-5.68 5.717H928.74c-3.123 0-5.68-2.557-5.68-5.717v-40.619c0-3.159 2.557-5.734 5.68-5.734h96.067c3.123 0 5.68 2.575 5.68 5.734v40.619zM915.955 333.42c0 3.161-2.538 5.717-5.68 5.717h-96.048c-3.142 0-5.68-2.557-5.68-5.717v-40.619c0-3.159 2.538-5.734 5.68-5.734h96.048c3.142 0 5.68 2.575 5.68 5.734v40.619zM801.433 333.42c0 3.161-2.54 5.717-5.68 5.717h-96.05c-3.14 0-5.68-2.557-5.68-5.717v-40.619c0-3.159 2.54-5.734 5.68-5.734h96.05c3.14 0 5.68 2.575 5.68 5.734v40.619zM686.918 333.42c0 3.161-2.547 5.717-5.689 5.717h-96.048c-3.142 0-5.68-2.557-5.68-5.717v-40.619c0-3.159 2.538-5.734 5.68-5.734h96.048c3.142 0 5.689 2.575 5.689 5.734v40.619zM572.396 333.42c0 3.161-2.547 5.717-5.68 5.717h-96.058c-3.133 0-5.68-2.557-5.68-5.717v-40.619c0-3.159 2.547-5.734 5.68-5.734h96.058c3.133 0 5.68 2.575 5.68 5.734v40.619zM457.874 333.42c0 3.161-2.549 5.717-5.68 5.717h-96.059c-3.133 0-5.68-2.557-5.68-5.717v-40.619c0-3.159 2.547-5.734 5.68-5.734h96.059c3.131 0 5.68 2.575 5.68 5.734v40.619zM343.35 333.42c0 3.161-2.538 5.717-5.68 5.717h-96.058c-3.133 0-5.68-2.557-5.68-5.717v-40.619c0-3.159 2.547-5.734 5.68-5.734h96.058c3.142 0 5.68 2.575 5.68 5.734v40.619zM228.828 333.42c0 3.161-2.538 5.717-5.68 5.717h-96.05c-3.14 0-5.68-2.557-5.68-5.717v-40.619c0-3.159 2.539-5.734 5.68-5.734h96.05c3.142 0 5.68 2.575 5.68 5.734v40.619zM114.306 333.42c0 3.161-2.54 5.717-5.68 5.717h-96.05c-3.142 0-5.68-2.557-5.68-5.717v-40.619c0-3.159 2.538-5.734 5.68-5.734h96.05c3.14 0 5.68 2.575 5.68 5.734v40.619zM-.218 333.42c0 3.161-2.538 5.717-5.68 5.717h-96.048c-3.142 0-5.68-2.557-5.68-5.717v-40.619c0-3.159 2.538-5.734 5.68-5.734h96.048c3.142 0 5.68 2.575 5.68 5.734v40.619zM1030.486 215.309c0 3.159-2.557 5.734-5.68 5.734H928.74c-3.123 0-5.68-2.575-5.68-5.734V174.69c0-3.159 2.557-5.715 5.68-5.715h96.067c3.123 0 5.68 2.557 5.68 5.715v40.619zM915.955 215.309c0 3.159-2.538 5.734-5.68 5.734h-96.048c-3.142 0-5.68-2.575-5.68-5.734V174.69c0-3.159 2.538-5.715 5.68-5.715h96.048c3.142 0 5.68 2.557 5.68 5.715v40.619zM801.433 215.309c0 3.159-2.54 5.734-5.68 5.734h-96.05c-3.14 0-5.68-2.575-5.68-5.734V174.69c0-3.159 2.54-5.715 5.68-5.715h96.05c3.14 0 5.68 2.557 5.68 5.715v40.619zM686.918 215.309c0 3.159-2.547 5.734-5.689 5.734h-96.048c-3.142 0-5.68-2.575-5.68-5.734V174.69c0-3.159 2.538-5.715 5.68-5.715h96.048c3.142 0 5.689 2.557 5.689 5.715v40.619zM572.396 215.309c0 3.159-2.547 5.734-5.68 5.734h-96.058c-3.133 0-5.68-2.575-5.68-5.734V174.69c0-3.159 2.547-5.715 5.68-5.715h96.058c3.133 0 5.68 2.557 5.68 5.715v40.619zM457.874 215.309c0 3.159-2.549 5.734-5.68 5.734h-96.059c-3.133 0-5.68-2.575-5.68-5.734V174.69c0-3.159 2.547-5.715 5.68-5.715h96.059c3.131 0 5.68 2.557 5.68 5.715v40.619zM343.35 215.309c0 3.159-2.538 5.734-5.68 5.734h-96.058c-3.133 0-5.68-2.575-5.68-5.734V174.69c0-3.159 2.547-5.715 5.68-5.715h96.058c3.142 0 5.68 2.557 5.68 5.715v40.619zM228.828 215.309c0 3.159-2.538 5.734-5.68 5.734h-96.05c-3.14 0-5.68-2.575-5.68-5.734V174.69c0-3.159 2.539-5.715 5.68-5.715h96.05c3.142 0 5.68 2.557 5.68 5.715v40.619zM114.306 215.309c0 3.159-2.54 5.734-5.68 5.734h-96.05c-3.142 0-5.68-2.575-5.68-5.734V174.69c0-3.159 2.538-5.715 5.68-5.715h96.05c3.14 0 5.68 2.557 5.68 5.715v40.619zM-.218 215.309c0 3.159-2.538 5.734-5.68 5.734h-96.048c-3.142 0-5.68-2.575-5.68-5.734V174.69c0-3.159 2.538-5.715 5.68-5.715h96.048c3.142 0 5.68 2.557 5.68 5.715v40.619zM1030.486 97.207c0 3.159-2.557 5.725-5.68 5.725H928.74c-3.123 0-5.68-2.566-5.68-5.725V56.588c0-3.161 2.557-5.717 5.68-5.717h96.067c3.123 0 5.68 2.557 5.68 5.717v40.619zM915.955 97.207c0 3.159-2.538 5.725-5.68 5.725h-96.048c-3.142 0-5.68-2.566-5.68-5.725V56.588c0-3.161 2.538-5.717 5.68-5.717h96.048c3.142 0 5.68 2.557 5.68 5.717v40.619zM801.433 97.207c0 3.159-2.54 5.725-5.68 5.725h-96.05c-3.14 0-5.68-2.566-5.68-5.725V56.588c0-3.161 2.54-5.717 5.68-5.717h96.05c3.14 0 5.68 2.557 5.68 5.717v40.619zM686.918 97.207c0 3.159-2.547 5.725-5.689 5.725h-96.048c-3.142 0-5.68-2.566-5.68-5.725V56.588c0-3.161 2.538-5.717 5.68-5.717h96.048c3.142 0 5.689 2.557 5.689 5.717v40.619zM572.396 97.207c0 3.159-2.547 5.725-5.68 5.725h-96.058c-3.133 0-5.68-2.566-5.68-5.725V56.588c0-3.161 2.547-5.717 5.68-5.717h96.058c3.133 0 5.68 2.557 5.68 5.717v40.619zM457.874 97.207c0 3.159-2.549 5.725-5.68 5.725h-96.059c-3.133 0-5.68-2.566-5.68-5.725V56.588c0-3.161 2.547-5.717 5.68-5.717h96.059c3.131 0 5.68 2.557 5.68 5.717v40.619zM343.35 97.207c0 3.159-2.538 5.725-5.68 5.725h-96.058c-3.133 0-5.68-2.566-5.68-5.725V56.588c0-3.161 2.547-5.717 5.68-5.717h96.058c3.142 0 5.68 2.557 5.68 5.717v40.619zM228.828 97.207c0 3.159-2.538 5.725-5.68 5.725h-96.05c-3.14 0-5.68-2.566-5.68-5.725V56.588c0-3.161 2.539-5.717 5.68-5.717h96.05c3.142 0 5.68 2.557 5.68 5.717v40.619zM114.306 97.207c0 3.159-2.54 5.725-5.68 5.725h-96.05c-3.142 0-5.68-2.566-5.68-5.725V56.588c0-3.161 2.538-5.717 5.68-5.717h96.05c3.14 0 5.68 2.557 5.68 5.717v40.619zM-.218 97.207c0 3.159-2.538 5.725-5.68 5.725h-96.048c-3.142 0-5.68-2.566-5.68-5.725V56.588c0-3.161 2.538-5.717 5.68-5.717h96.048c3.142 0 5.68 2.557 5.68 5.717v40.619zM1087.745 1099.821c0 3.161-2.54 5.717-5.68 5.717h-96.068c-3.123 0-5.661-2.557-5.661-5.717v-40.619c0-3.159 2.538-5.734 5.661-5.734h96.068c3.14 0 5.68 2.575 5.68 5.734v40.619zM973.211 1099.821c0 3.161-2.538 5.717-5.68 5.717h-96.048c-3.142 0-5.68-2.557-5.68-5.717v-40.619c0-3.159 2.538-5.734 5.68-5.734h96.048c3.142 0 5.68 2.575 5.68 5.734v40.619zM858.699 1099.821c0 3.161-2.538 5.717-5.68 5.717h-96.058c-3.132 0-5.682-2.557-5.682-5.717v-40.619c0-3.159 2.549-5.734 5.682-5.734h96.058c3.142 0 5.68 2.575 5.68 5.734v40.619zM744.177 1099.821c0 3.161-2.549 5.717-5.68 5.717h-96.059c-3.133 0-5.68-2.557-5.68-5.717v-40.619c0-3.159 2.547-5.734 5.68-5.734h96.059c3.131 0 5.68 2.575 5.68 5.734v40.619zM629.653 1099.821c0 3.161-2.538 5.717-5.68 5.717h-96.058c-3.133 0-5.68-2.557-5.68-5.717v-40.619c0-3.159 2.547-5.734 5.68-5.734h96.058c3.142 0 5.68 2.575 5.68 5.734v40.619zM515.13 1099.821c0 3.161-2.538 5.717-5.68 5.717H413.4c-3.14 0-5.68-2.557-5.68-5.717v-40.619c0-3.159 2.54-5.734 5.68-5.734h96.05c3.142 0 5.68 2.575 5.68 5.734v40.619zM400.608 1099.821c0 3.161-2.54 5.717-5.682 5.717h-96.048c-3.142 0-5.68-2.557-5.68-5.717v-40.619c0-3.159 2.538-5.734 5.68-5.734h96.048c3.142 0 5.682 2.575 5.682 5.734v40.619zM286.094 1099.821c0 3.161-2.547 5.717-5.689 5.717h-96.048c-3.142 0-5.68-2.557-5.68-5.717v-40.619c0-3.159 2.538-5.734 5.68-5.734h96.048c3.142 0 5.689 2.575 5.689 5.734v40.619zM171.572 1099.821c0 3.161-2.549 5.717-5.68 5.717h-96.06c-3.131 0-5.68-2.557-5.68-5.717v-40.619c0-3.159 2.549-5.734 5.68-5.734h96.06c3.13 0 5.68 2.575 5.68 5.734v40.619zM57.048 1099.821c0 3.161-2.547 5.717-5.68 5.717H-44.69c-3.133 0-5.68-2.557-5.68-5.717v-40.619c0-3.159 2.547-5.734 5.68-5.734h96.058c3.133 0 5.68 2.575 5.68 5.734v40.619zM1087.745 981.71c0 3.159-2.54 5.717-5.68 5.717h-96.068c-3.123 0-5.661-2.558-5.661-5.717v-40.619c0-3.159 2.538-5.717 5.661-5.717h96.068c3.14 0 5.68 2.558 5.68 5.717v40.619zM973.211 981.71c0 3.159-2.538 5.717-5.68 5.717h-96.048c-3.142 0-5.68-2.558-5.68-5.717v-40.619c0-3.159 2.538-5.717 5.68-5.717h96.048c3.142 0 5.68 2.558 5.68 5.717v40.619zM858.699 981.71c0 3.159-2.538 5.717-5.68 5.717h-96.058c-3.132 0-5.682-2.558-5.682-5.717v-40.619c0-3.159 2.549-5.717 5.682-5.717h96.058c3.142 0 5.68 2.558 5.68 5.717v40.619zM744.177 981.71c0 3.159-2.549 5.717-5.68 5.717h-96.059c-3.133 0-5.68-2.558-5.68-5.717v-40.619c0-3.159 2.547-5.717 5.68-5.717h96.059c3.131 0 5.68 2.558 5.68 5.717v40.619zM629.653 981.71c0 3.159-2.538 5.717-5.68 5.717h-96.058c-3.133 0-5.68-2.558-5.68-5.717v-40.619c0-3.159 2.547-5.717 5.68-5.717h96.058c3.142 0 5.68 2.558 5.68 5.717v40.619zM515.13 981.71c0 3.159-2.538 5.717-5.68 5.717H413.4c-3.14 0-5.68-2.558-5.68-5.717v-40.619c0-3.159 2.54-5.717 5.68-5.717h96.05c3.142 0 5.68 2.558 5.68 5.717v40.619zM400.608 981.71c0 3.159-2.54 5.717-5.682 5.717h-96.048c-3.142 0-5.68-2.558-5.68-5.717v-40.619c0-3.159 2.538-5.717 5.68-5.717h96.048c3.142 0 5.682 2.558 5.682 5.717v40.619zM286.094 981.71c0 3.159-2.547 5.717-5.689 5.717h-96.048c-3.142 0-5.68-2.558-5.68-5.717v-40.619c0-3.159 2.538-5.717 5.68-5.717h96.048c3.142 0 5.689 2.558 5.689 5.717v40.619zM171.572 981.71c0 3.159-2.549 5.717-5.68 5.717h-96.06c-3.131 0-5.68-2.558-5.68-5.717v-40.619c0-3.159 2.549-5.717 5.68-5.717h96.06c3.13 0 5.68 2.558 5.68 5.717v40.619zM57.048 981.71c0 3.159-2.547 5.717-5.68 5.717H-44.69c-3.133 0-5.68-2.558-5.68-5.717v-40.619c0-3.159 2.547-5.717 5.68-5.717h96.058c3.133 0 5.68 2.558 5.68 5.717v40.619zM1087.745 863.616c0 3.161-2.54 5.717-5.68 5.717h-96.068c-3.123 0-5.661-2.557-5.661-5.717v-40.617c0-3.161 2.538-5.736 5.661-5.736h96.068c3.14 0 5.68 2.575 5.68 5.736v40.617zM973.211 863.616c0 3.161-2.538 5.717-5.68 5.717h-96.048c-3.142 0-5.68-2.557-5.68-5.717v-40.617c0-3.161 2.538-5.736 5.68-5.736h96.048c3.142 0 5.68 2.575 5.68 5.736v40.617zM858.699 863.616c0 3.161-2.538 5.717-5.68 5.717h-96.058c-3.132 0-5.682-2.557-5.682-5.717v-40.617c0-3.161 2.549-5.736 5.682-5.736h96.058c3.142 0 5.68 2.575 5.68 5.736v40.617zM744.177 863.616c0 3.161-2.549 5.717-5.68 5.717h-96.059c-3.133 0-5.68-2.557-5.68-5.717v-40.617c0-3.161 2.547-5.736 5.68-5.736h96.059c3.131 0 5.68 2.575 5.68 5.736v40.617zM629.653 863.616c0 3.161-2.538 5.717-5.68 5.717h-96.058c-3.133 0-5.68-2.557-5.68-5.717v-40.617c0-3.161 2.547-5.736 5.68-5.736h96.058c3.142 0 5.68 2.575 5.68 5.736v40.617zM515.13 863.616c0 3.161-2.538 5.717-5.68 5.717H413.4c-3.14 0-5.68-2.557-5.68-5.717v-40.617c0-3.161 2.54-5.736 5.68-5.736h96.05c3.142 0 5.68 2.575 5.68 5.736v40.617zM400.608 863.616c0 3.161-2.54 5.717-5.682 5.717h-96.048c-3.142 0-5.68-2.557-5.68-5.717v-40.617c0-3.161 2.538-5.736 5.68-5.736h96.048c3.142 0 5.682 2.575 5.682 5.736v40.617zM286.094 863.616c0 3.161-2.547 5.717-5.689 5.717h-96.048c-3.142 0-5.68-2.557-5.68-5.717v-40.617c0-3.161 2.538-5.736 5.68-5.736h96.048c3.142 0 5.689 2.575 5.689 5.736v40.617zM171.572 863.616c0 3.161-2.549 5.717-5.68 5.717h-96.06c-3.131 0-5.68-2.557-5.68-5.717v-40.617c0-3.161 2.549-5.736 5.68-5.736h96.06c3.13 0 5.68 2.575 5.68 5.736v40.617zM57.048 863.616c0 3.161-2.547 5.717-5.68 5.717H-44.69c-3.133 0-5.68-2.557-5.68-5.717v-40.617c0-3.161 2.547-5.736 5.68-5.736h96.058c3.133 0 5.68 2.575 5.68 5.736v40.617zM1087.745 745.505c0 3.159-2.54 5.734-5.68 5.734h-96.068c-3.123 0-5.661-2.575-5.661-5.734v-40.619c0-3.159 2.538-5.715 5.661-5.715h96.068c3.14 0 5.68 2.557 5.68 5.715v40.619zM973.211 745.505c0 3.159-2.538 5.734-5.68 5.734h-96.048c-3.142 0-5.68-2.575-5.68-5.734v-40.619c0-3.159 2.538-5.715 5.68-5.715h96.048c3.142 0 5.68 2.557 5.68 5.715v40.619zM858.699 745.505c0 3.159-2.538 5.734-5.68 5.734h-96.058c-3.132 0-5.682-2.575-5.682-5.734v-40.619c0-3.159 2.549-5.715 5.682-5.715h96.058c3.142 0 5.68 2.557 5.68 5.715v40.619zM744.177 745.505c0 3.159-2.549 5.734-5.68 5.734h-96.059c-3.133 0-5.68-2.575-5.68-5.734v-40.619c0-3.159 2.547-5.715 5.68-5.715h96.059c3.131 0 5.68 2.557 5.68 5.715v40.619zM629.653 745.505c0 3.159-2.538 5.734-5.68 5.734h-96.058c-3.133 0-5.68-2.575-5.68-5.734v-40.619c0-3.159 2.547-5.715 5.68-5.715h96.058c3.142 0 5.68 2.557 5.68 5.715v40.619zM515.13 745.505c0 3.159-2.538 5.734-5.68 5.734H413.4c-3.14 0-5.68-2.575-5.68-5.734v-40.619c0-3.159 2.54-5.715 5.68-5.715h96.05c3.142 0 5.68 2.557 5.68 5.715v40.619zM400.608 745.505c0 3.159-2.54 5.734-5.682 5.734h-96.048c-3.142 0-5.68-2.575-5.68-5.734v-40.619c0-3.159 2.538-5.715 5.68-5.715h96.048c3.142 0 5.682 2.557 5.682 5.715v40.619zM286.094 745.505c0 3.159-2.547 5.734-5.689 5.734h-96.048c-3.142 0-5.68-2.575-5.68-5.734v-40.619c0-3.159 2.538-5.715 5.68-5.715h96.048c3.142 0 5.689 2.557 5.689 5.715v40.619zM171.572 745.505c0 3.159-2.549 5.734-5.68 5.734h-96.06c-3.131 0-5.68-2.575-5.68-5.734v-40.619c0-3.159 2.549-5.715 5.68-5.715h96.06c3.13 0 5.68 2.557 5.68 5.715v40.619zM57.048 745.505c0 3.159-2.547 5.734-5.68 5.734H-44.69c-3.133 0-5.68-2.575-5.68-5.734v-40.619c0-3.159 2.547-5.715 5.68-5.715h96.058c3.133 0 5.68 2.557 5.68 5.715v40.619zM1087.745 627.413c0 3.159-2.54 5.715-5.68 5.715h-96.068c-3.123 0-5.661-2.557-5.661-5.715v-40.619c0-3.161 2.538-5.736 5.661-5.736h96.068c3.14 0 5.68 2.575 5.68 5.736v40.619zM973.211 627.413c0 3.159-2.538 5.715-5.68 5.715h-96.048c-3.142 0-5.68-2.557-5.68-5.715v-40.619c0-3.161 2.538-5.736 5.68-5.736h96.048c3.142 0 5.68 2.575 5.68 5.736v40.619zM858.699 627.413c0 3.159-2.538 5.715-5.68 5.715h-96.058c-3.132 0-5.682-2.557-5.682-5.715v-40.619c0-3.161 2.549-5.736 5.682-5.736h96.058c3.142 0 5.68 2.575 5.68 5.736v40.619zM744.177 627.413c0 3.159-2.549 5.715-5.68 5.715h-96.059c-3.133 0-5.68-2.557-5.68-5.715v-40.619c0-3.161 2.547-5.736 5.68-5.736h96.059c3.131 0 5.68 2.575 5.68 5.736v40.619zM629.653 627.413c0 3.159-2.538 5.715-5.68 5.715h-96.058c-3.133 0-5.68-2.557-5.68-5.715v-40.619c0-3.161 2.547-5.736 5.68-5.736h96.058c3.142 0 5.68 2.575 5.68 5.736v40.619zM515.13 627.413c0 3.159-2.538 5.715-5.68 5.715H413.4c-3.14 0-5.68-2.557-5.68-5.715v-40.619c0-3.161 2.54-5.736 5.68-5.736h96.05c3.142 0 5.68 2.575 5.68 5.736v40.619zM400.608 627.413c0 3.159-2.54 5.715-5.682 5.715h-96.048c-3.142 0-5.68-2.557-5.68-5.715v-40.619c0-3.161 2.538-5.736 5.68-5.736h96.048c3.142 0 5.682 2.575 5.682 5.736v40.619zM286.094 627.413c0 3.159-2.547 5.715-5.689 5.715h-96.048c-3.142 0-5.68-2.557-5.68-5.715v-40.619c0-3.161 2.538-5.736 5.68-5.736h96.048c3.142 0 5.689 2.575 5.689 5.736v40.619zM171.572 627.413c0 3.159-2.549 5.715-5.68 5.715h-96.06c-3.131 0-5.68-2.557-5.68-5.715v-40.619c0-3.161 2.549-5.736 5.68-5.736h96.06c3.13 0 5.68 2.575 5.68 5.736v40.619zM57.048 627.413c0 3.159-2.547 5.715-5.68 5.715H-44.69c-3.133 0-5.68-2.557-5.68-5.715v-40.619c0-3.161 2.547-5.736 5.68-5.736h96.058c3.133 0 5.68 2.575 5.68 5.736v40.619zM1087.745 509.3c0 3.161-2.54 5.736-5.68 5.736h-96.068c-3.123 0-5.661-2.575-5.661-5.736v-40.619c0-3.159 2.538-5.715 5.661-5.715h96.068c3.14 0 5.68 2.557 5.68 5.715V509.3zM973.211 509.3c0 3.161-2.538 5.736-5.68 5.736h-96.048c-3.142 0-5.68-2.575-5.68-5.736v-40.619c0-3.159 2.538-5.715 5.68-5.715h96.048c3.142 0 5.68 2.557 5.68 5.715V509.3zM858.699 509.3c0 3.161-2.538 5.736-5.68 5.736h-96.058c-3.132 0-5.682-2.575-5.682-5.736v-40.619c0-3.159 2.549-5.715 5.682-5.715h96.058c3.142 0 5.68 2.557 5.68 5.715V509.3zM744.177 509.3c0 3.161-2.549 5.736-5.68 5.736h-96.059c-3.133 0-5.68-2.575-5.68-5.736v-40.619c0-3.159 2.547-5.715 5.68-5.715h96.059c3.131 0 5.68 2.557 5.68 5.715V509.3zM629.653 509.3c0 3.161-2.538 5.736-5.68 5.736h-96.058c-3.133 0-5.68-2.575-5.68-5.736v-40.619c0-3.159 2.547-5.715 5.68-5.715h96.058c3.142 0 5.68 2.557 5.68 5.715V509.3zM515.13 509.3c0 3.161-2.538 5.736-5.68 5.736H413.4c-3.14 0-5.68-2.575-5.68-5.736v-40.619c0-3.159 2.54-5.715 5.68-5.715h96.05c3.142 0 5.68 2.557 5.68 5.715V509.3zM400.608 509.3c0 3.161-2.54 5.736-5.682 5.736h-96.048c-3.142 0-5.68-2.575-5.68-5.736v-40.619c0-3.159 2.538-5.715 5.68-5.715h96.048c3.142 0 5.682 2.557 5.682 5.715V509.3zM286.094 509.3c0 3.161-2.547 5.736-5.689 5.736h-96.048c-3.142 0-5.68-2.575-5.68-5.736v-40.619c0-3.159 2.538-5.715 5.68-5.715h96.048c3.142 0 5.689 2.557 5.689 5.715V509.3zM171.572 509.3c0 3.161-2.549 5.736-5.68 5.736h-96.06c-3.131 0-5.68-2.575-5.68-5.736v-40.619c0-3.159 2.549-5.715 5.68-5.715h96.06c3.13 0 5.68 2.557 5.68 5.715V509.3zM57.048 509.3c0 3.161-2.547 5.736-5.68 5.736H-44.69c-3.133 0-5.68-2.575-5.68-5.736v-40.619c0-3.159 2.547-5.715 5.68-5.715h96.058c3.133 0 5.68 2.557 5.68 5.715V509.3zM1087.745 391.207c0 3.159-2.54 5.715-5.68 5.715h-96.068c-3.123 0-5.661-2.557-5.661-5.715v-40.619c0-3.161 2.538-5.734 5.661-5.734h96.068c3.14 0 5.68 2.573 5.68 5.734v40.619zM973.211 391.207c0 3.159-2.538 5.715-5.68 5.715h-96.048c-3.142 0-5.68-2.557-5.68-5.715v-40.619c0-3.161 2.538-5.734 5.68-5.734h96.048c3.142 0 5.68 2.573 5.68 5.734v40.619zM858.699 391.207c0 3.159-2.538 5.715-5.68 5.715h-96.058c-3.132 0-5.682-2.557-5.682-5.715v-40.619c0-3.161 2.549-5.734 5.682-5.734h96.058c3.142 0 5.68 2.573 5.68 5.734v40.619zM744.177 391.207c0 3.159-2.549 5.715-5.68 5.715h-96.059c-3.133 0-5.68-2.557-5.68-5.715v-40.619c0-3.161 2.547-5.734 5.68-5.734h96.059c3.131 0 5.68 2.573 5.68 5.734v40.619zM629.653 391.207c0 3.159-2.538 5.715-5.68 5.715h-96.058c-3.133 0-5.68-2.557-5.68-5.715v-40.619c0-3.161 2.547-5.734 5.68-5.734h96.058c3.142 0 5.68 2.573 5.68 5.734v40.619zM515.13 391.207c0 3.159-2.538 5.715-5.68 5.715H413.4c-3.14 0-5.68-2.557-5.68-5.715v-40.619c0-3.161 2.54-5.734 5.68-5.734h96.05c3.142 0 5.68 2.573 5.68 5.734v40.619zM400.608 391.207c0 3.159-2.54 5.715-5.682 5.715h-96.048c-3.142 0-5.68-2.557-5.68-5.715v-40.619c0-3.161 2.538-5.734 5.68-5.734h96.048c3.142 0 5.682 2.573 5.682 5.734v40.619zM286.094 391.207c0 3.159-2.547 5.715-5.689 5.715h-96.048c-3.142 0-5.68-2.557-5.68-5.715v-40.619c0-3.161 2.538-5.734 5.68-5.734h96.048c3.142 0 5.689 2.573 5.689 5.734v40.619zM171.572 391.207c0 3.159-2.549 5.715-5.68 5.715h-96.06c-3.131 0-5.68-2.557-5.68-5.715v-40.619c0-3.161 2.549-5.734 5.68-5.734h96.06c3.13 0 5.68 2.573 5.68 5.734v40.619zM57.048 391.207c0 3.159-2.547 5.715-5.68 5.715H-44.69c-3.133 0-5.68-2.557-5.68-5.715v-40.619c0-3.161 2.547-5.734 5.68-5.734h96.058c3.133 0 5.68 2.573 5.68 5.734v40.619zM1087.745 273.094c0 3.161-2.54 5.736-5.68 5.736h-96.068c-3.123 0-5.661-2.575-5.661-5.736v-40.617c0-3.161 2.538-5.717 5.661-5.717h96.068c3.14 0 5.68 2.557 5.68 5.717v40.617zM973.211 273.094c0 3.161-2.538 5.736-5.68 5.736h-96.048c-3.142 0-5.68-2.575-5.68-5.736v-40.617c0-3.161 2.538-5.717 5.68-5.717h96.048c3.142 0 5.68 2.557 5.68 5.717v40.617zM858.699 273.094c0 3.161-2.538 5.736-5.68 5.736h-96.058c-3.132 0-5.682-2.575-5.682-5.736v-40.617c0-3.161 2.549-5.717 5.682-5.717h96.058c3.142 0 5.68 2.557 5.68 5.717v40.617zM744.177 273.094c0 3.161-2.549 5.736-5.68 5.736h-96.059c-3.133 0-5.68-2.575-5.68-5.736v-40.617c0-3.161 2.547-5.717 5.68-5.717h96.059c3.131 0 5.68 2.557 5.68 5.717v40.617zM629.653 273.094c0 3.161-2.538 5.736-5.68 5.736h-96.058c-3.133 0-5.68-2.575-5.68-5.736v-40.617c0-3.161 2.547-5.717 5.68-5.717h96.058c3.142 0 5.68 2.557 5.68 5.717v40.617zM515.13 273.094c0 3.161-2.538 5.736-5.68 5.736H413.4c-3.14 0-5.68-2.575-5.68-5.736v-40.617c0-3.161 2.54-5.717 5.68-5.717h96.05c3.142 0 5.68 2.557 5.68 5.717v40.617zM400.608 273.094c0 3.161-2.54 5.736-5.682 5.736h-96.048c-3.142 0-5.68-2.575-5.68-5.736v-40.617c0-3.161 2.538-5.717 5.68-5.717h96.048c3.142 0 5.682 2.557 5.682 5.717v40.617zM286.094 273.094c0 3.161-2.547 5.736-5.689 5.736h-96.048c-3.142 0-5.68-2.575-5.68-5.736v-40.617c0-3.161 2.538-5.717 5.68-5.717h96.048c3.142 0 5.689 2.557 5.689 5.717v40.617zM171.572 273.094c0 3.161-2.549 5.736-5.68 5.736h-96.06c-3.131 0-5.68-2.575-5.68-5.736v-40.617c0-3.161 2.549-5.717 5.68-5.717h96.06c3.13 0 5.68 2.557 5.68 5.717v40.617zM57.048 273.094c0 3.161-2.547 5.736-5.68 5.736H-44.69c-3.133 0-5.68-2.575-5.68-5.736v-40.617c0-3.161 2.547-5.717 5.68-5.717h96.058c3.133 0 5.68 2.557 5.68 5.717v40.617zM1087.745 155.002c0 3.159-2.54 5.715-5.68 5.715h-96.068c-3.123 0-5.661-2.557-5.661-5.715v-40.619c0-3.159 2.538-5.725 5.661-5.725h96.068c3.14 0 5.68 2.566 5.68 5.725v40.619zM973.211 155.002c0 3.159-2.538 5.715-5.68 5.715h-96.048c-3.142 0-5.68-2.557-5.68-5.715v-40.619c0-3.159 2.538-5.725 5.68-5.725h96.048c3.142 0 5.68 2.566 5.68 5.725v40.619zM858.699 155.002c0 3.159-2.538 5.715-5.68 5.715h-96.058c-3.132 0-5.682-2.557-5.682-5.715v-40.619c0-3.159 2.549-5.725 5.682-5.725h96.058c3.142 0 5.68 2.566 5.68 5.725v40.619zM744.177 155.002c0 3.159-2.549 5.715-5.68 5.715h-96.059c-3.133 0-5.68-2.557-5.68-5.715v-40.619c0-3.159 2.547-5.725 5.68-5.725h96.059c3.131 0 5.68 2.566 5.68 5.725v40.619zM629.653 155.002c0 3.159-2.538 5.715-5.68 5.715h-96.058c-3.133 0-5.68-2.557-5.68-5.715v-40.619c0-3.159 2.547-5.725 5.68-5.725h96.058c3.142 0 5.68 2.566 5.68 5.725v40.619zM515.13 155.002c0 3.159-2.538 5.715-5.68 5.715H413.4c-3.14 0-5.68-2.557-5.68-5.715v-40.619c0-3.159 2.54-5.725 5.68-5.725h96.05c3.142 0 5.68 2.566 5.68 5.725v40.619zM400.608 155.002c0 3.159-2.54 5.715-5.682 5.715h-96.048c-3.142 0-5.68-2.557-5.68-5.715v-40.619c0-3.159 2.538-5.725 5.68-5.725h96.048c3.142 0 5.682 2.566 5.682 5.725v40.619zM286.094 155.002c0 3.159-2.547 5.715-5.689 5.715h-96.048c-3.142 0-5.68-2.557-5.68-5.715v-40.619c0-3.159 2.538-5.725 5.68-5.725h96.048c3.142 0 5.689 2.566 5.689 5.725v40.619zM171.572 155.002c0 3.159-2.549 5.715-5.68 5.715h-96.06c-3.131 0-5.68-2.557-5.68-5.715v-40.619c0-3.159 2.549-5.725 5.68-5.725h96.06c3.13 0 5.68 2.566 5.68 5.725v40.619zM57.048 155.002c0 3.159-2.547 5.715-5.68 5.715H-44.69c-3.133 0-5.68-2.557-5.68-5.715v-40.619c0-3.159 2.547-5.725 5.68-5.725h96.058c3.133 0 5.68 2.566 5.68 5.725v40.619z"></path></g></g><path fill="#ffbe55" d="M443.886 300.057c-7.111 8.568-6.471 21.066-6.387 22.428.5 8.102 3.871 14.235 6.286 17.964 23.639 36.486 60.609 56.976 60.609 56.977a830.18 830.18 0 0 0 109.714 76.511l10.965-59.661c-29.98-24.513-54.266-44.574-72.845-59.28-10.534-8.339-22.181-17.88-33.341-34.067-7.054-10.232-5.231-10.877-9.751-15.668-16.339-17.323-51.892-21.298-65.25-5.204z"></path><path d="M443.886 300.057c-7.111 8.568-6.471 21.066-6.387 22.428.5 8.102 3.871 14.235 6.286 17.964 23.639 36.486 60.609 56.976 60.609 56.977a830.18 830.18 0 0 0 109.714 76.511l10.965-59.661c-29.98-24.513-54.266-44.574-72.845-59.28-10.534-8.339-22.181-17.88-33.341-34.067-7.054-10.232-5.231-10.877-9.751-15.668-16.339-17.323-51.892-21.298-65.25-5.204z" opacity=".12"></path><circle cx="347.307" cy="101.72" r="31.847" fill="#0b4870"></circle><circle cx="379.153" cy="90.696" r="31.847" fill="#0b4870"></circle><circle cx="411" cy="109.069" r="31.847" fill="#0b4870"></circle><circle cx="442.847" cy="133.567" r="31.847" fill="#0b4870"></circle><circle cx="466.119" cy="172.763" r="31.847" fill="#0b4870"></circle><circle cx="457.545" cy="197.26" r="31.847" fill="#0b4870"></circle><circle cx="442.847" cy="229.107" r="31.847" fill="#0b4870"></circle><circle cx="411" cy="252.417" r="31.847" fill="#0b4870"></circle><circle cx="387.727" cy="260.953" r="31.847" fill="#0b4870"></circle><circle cx="371.804" cy="260.953" r="31.847" fill="#0b4870"></circle><circle cx="382.828" cy="186.236" r="74.717" fill="#0b4870"></circle><circle cx="315.46" cy="133.567" r="31.847" fill="#0b4870"></circle><circle cx="300.762" cy="165.413" r="31.847" fill="#0b4870"></circle><circle cx="295.862" cy="197.26" r="31.847" fill="#0b4870"></circle><circle cx="300.762" cy="238.906" r="31.847" fill="#0b4870"></circle><circle cx="327.709" cy="260.953" r="31.847" fill="#0b4870"></circle><path fill="#efb68f" d="M356.825 246.977c18.048 36.272 70.017 28.276 70.017 28.276M367.813 307.403s-59.273 33.821-70.76 44.659c0 0 103.978 74.584 212.31-44.051-11.256-4.289-13.101-4.189-27.889-7.536-19.083-4.319-45.932-9.929-60.551-10.582l-53.11 17.51z"></path><path fill="#efb68f" d="m423.701 275.608 1.022 27.07-55.596 8.413-21.83-66.683 13.224-2.537z"></path><path fill="#efb68f" d="M330.325 231.153c3.494 6.379 9.577 11.13 16.972 13.255 20.947 5.828 20.73-19.31 10.351-28.777-12.352-11.285-36.658-1.619-27.323 15.522z"></path><path fill="#ffbe55" d="M358.131 314.325c12.346 17.562 34.604 24.633 53.585 17.58 16.269-6.045 27.711-21.568 29.207-39.605a80.318 80.318 0 0 1 34.86-2.13 80.342 80.342 0 0 1 32.66 13.041l51.478 304.187-181.236 28.224-83.232-282.172c6.808-5.707 14.372-14.565 23.843-20.41a208.257 208.257 0 0 1 38.835-18.715z"></path><path fill="#0b4870" d="M606.934 686.62c-10.419 19.851-42.991 27.348-51.339 31.032-2.577 1.137-11.145 2.97-28.217 6.902a1089.765 1089.765 0 0 1-41.396 8.685 1132.418 1132.418 0 0 1-24.755 4.416c-20.771 3.468-19.739-.1-28.604.506-12.448.852-11.994 5.261-40.386-11.335-21.561-25.113-18.261-90.656-23.154-123.756l183.9-36.671c15.26 28.488 27.817 83.194 53.951 120.221z"></path><path fill="#ffbe55" d="m596.124 1134.765 25.671-91.854-36.173-11.079-25.702 91.723z"></path><path fill="#0b4870" d="m555.332 1124.962-6.664 29.525h117.318v-.862a17.63 17.63 0 0 0-10.05-15.917l-54.447-21.725c-1.959-.933-4.475-.893-5.967.682-7.036 7.427-14.764 19.522-36.244 6.399-1.558-.953-3.599.106-3.946 1.898z"></path><path fill="#ffbe55" d="M548.668 1154.487h117.318v7.748H548.668z"></path><path fill="#0b4870" d="M646.995 828.396c19.043-12.355 24.69-37.68 12.701-56.955l-73.89-118.787c-13.946-22.42-44.864-31.482-68.707-20.138-5.503 5.337-14.614 15.571-20.619 31.124-6.752 17.484-6.166 32.849-5.328 40.667l101.791 116.544c13.633 15.61 36.666 18.825 54.052 7.545z"></path><path fill="#0b4870" d="m522.508 1154.487 99.287-30.402 45.293-335.699c-2.787-22.843-23.678-39.022-46.492-36.007-23.143 3.059-39.175 24.648-35.412 47.687l-62.676 354.421z"></path><path fill="#ffbe55" d="m211.291 1126.014 46.926-83.031 33.385 17.796-46.811 82.96z"></path><path fill="#0b4870" d="m395.911 864.916-69.691-28.55 65.558-175.315c9.398-24.46 37.041-36.443 61.317-26.581 1.353.55 6.104 2.56 11.406 6.763 0 0 10.078 8.063 14.711 19.916 5.126 13.114 1.904 26.715-1.701 37.296-8.785 25.778-38.114 87.229-81.6 166.471z"></path><path fill="#0b4870" d="m295.862 1175.746-99.406-60.382 152.531-339.193c8.448-21.406 32.738-31.805 54.058-23.144 21.628 8.786 31.709 33.715 22.268 55.066l-129.451 367.653z"></path><path fill="#0b4870" d="m262.654 1145.703-3.676 30.043-110.456-39.536.29-.811a17.63 17.63 0 0 1 14.826-11.599l58.583-2.106c2.159-.218 4.514.667 5.389 2.653 4.122 9.363 7.321 23.355 31.968 18.238 1.789-.371 3.354 1.313 3.076 3.118z"></path><path fill="#ffbe55" d="M143.786 1155.751h117.318v7.748H143.786z" transform="rotate(-160.305 202.45 1159.628)"></path><path fill="#e0a882" d="M423.701 275.608c-1.531 3.48-4.01 7.31-8.14 9.313-12.971 6.292-32.317-10.234-40.093-16.877-8.256-7.053-14.28-14.523-18.643-21.068 3.914 4.261 8.862 8.815 66.876 28.632z"></path><path fill="#efb68f" d="M331.62 158.971c15.793-29.223 60.861-42.583 87.487-27.046 12.082 7.051 17.111 18.152 24.528 34.529 2.268 5.007 18.68 42.627 6.025 82.609-4.897 15.473-10.753 20.573-15.044 23.06-8.652 5.015-18.126 3.43-26.833 2.163-17.645-2.567-29.775-11.079-34.232-14.283-21.295-15.306-62.703-62.596-41.931-101.032z"></path><circle cx="330.087" cy="212.276" r="7.667" fill="#0b4870"></circle><circle cx="338.041" cy="216.643" r="5.75" fill="#0b4870"></circle><circle cx="343.791" cy="222.393" r="3.833" fill="#0b4870"></circle><circle cx="327.709" cy="200.473" r="8.574" fill="#0b4870"></circle><circle cx="325.949" cy="186.236" r="8.574" fill="#0b4870"></circle><circle cx="328.239" cy="172.763" r="8.574" fill="#0b4870"></circle><circle cx="332.608" cy="161.488" r="8.574" fill="#0b4870"></circle><circle cx="339.958" cy="149.49" r="8.574" fill="#0b4870"></circle><circle cx="348.532" cy="140.916" r="8.574" fill="#0b4870"></circle><circle cx="358.219" cy="133.567" r="8.574" fill="#0b4870"></circle><circle cx="366.793" cy="124.993" r="8.574" fill="#0b4870"></circle><circle cx="382.828" cy="122.543" r="8.574" fill="#0b4870"></circle><circle cx="396.302" cy="124.993" r="8.574" fill="#0b4870"></circle><circle cx="408.529" cy="128.119" r="8.574" fill="#0b4870"></circle><circle cx="421.421" cy="128.119" r="8.574" fill="#0b4870"></circle><circle cx="433.186" cy="136.693" r="8.574" fill="#0b4870"></circle><path fill="#ffbe55" d="m451.402 170.051-94.281 40.238h-.025l-3.884-3.182 97.714-41.691z"></path><path fill="#191919" d="m451.402 170.051-94.281 40.238h-.025l-3.884-3.182 97.714-41.691z" opacity=".06"></path><path fill="#ffbe55" d="m454.409 199.44-26.769 12.836-10.538-5.219-6.113 13.504-29.339 9.722-24.529-19.994 94.281-40.238z"></path><path fill="#fff" d="m381.869 199.727-.219 30.556 21.559-7.144v-32.708zM427.64 180.132v32.144l19.617-9.407v-30.896z" opacity=".14"></path><path fill="#ffbe55" d="m338.788 222.09 23.684-7.439-9.26-7.544-23.126 9.536c.432-.01 2.527-.014 4.284 1.614 1.611 1.491 4.369 3.358 4.418 3.833z"></path><path fill="#191919" d="m338.788 222.09 23.684-7.439-9.26-7.544-23.126 9.536c.432-.01 2.527-.014 4.284 1.614 1.611 1.491 4.369 3.358 4.418 3.833z" opacity=".15"></path><path fill="#ffbe55" d="m422.655 244.363 62.457 19.294 172.73 277.557c23.047 37.033 73.35 45.46 107.207 17.958l159.508-129.566L786.522 313.64l-80.85 154.298-185.291-223.12a35.343 35.343 0 0 0-33.544-12.187l-64.182 11.732z"></path><path fill="#f7c6a4" d="M591.575 391.64c-1.843 5.213-.73 8.197-.73 8.197-4.266 2.912-4.896 8.424-1.378 12.067l2.491 2.58c3.255 3.37 8.891 3.902 12.842 1.212l.227-.155c2.763-.383 17.828-2.732 25.426-15.522 4.835-8.14 6.995-21.096 1.795-24.519-4.491-2.957-14.455 1.213-23.162 11.078l3.089-9.014c.392-1.144-.097-2.385-1.208-3.064-1.195-.731-2.798-.624-3.851.256l-8.344 6.974c-3.269 2.733-5.85 6.101-7.197 9.91z"></path><path fill="#f7c6a4" d="m587.654 403.857-126.939 71.988c-10.937 6.299-13.078 19.755-4.545 28.571 7.707 7.964 21.154 8.964 30.176 2.244l113.782-89.307-12.474-13.496z"></path><path fill="#f7c6a4" d="M320.353 421.404c24.77 18.91 50.656 44.472 119.139 82.401 7.254 4.017 20.999 11.404 34.822 7.974 6.414-1.592 10.897-5.029 13.676-7.692-.491-3.782-1.813-9.74-5.757-16.248-5.032-8.302-11.802-13.327-15.634-15.789L347.057 370.055c-11.874-9.397-30.021-8.366-39.647 2.252-8.961 9.884 1.714 40.525 12.943 49.097z"></path><path fill="#ffbe55" d="M466.599 472.051c-25.458-19.996-43.822-38.49-55.936-51.752-13.376-14.645-27.101-31.637-51.713-54.72-26.386-24.747-37.759-30.677-46.653-27.491-6.129 2.195-16.46 10.563-21.3 22.427-.398.976-.676 1.738-.845 2.201-8.598 23.566 19.306 49.09 26.526 57.234 28.451 32.093 132.101 92.247 144.496 95.958 0 0 11.912 4.059 29.482-7.667 17.571-11.726 116.278-54.118 116.278-54.118s-4.637-37.522-23.937-47.624l-116.398 65.552zM366.15 301.997l-22.985 19.084 60.044 27.316 4.899-15.849zM408.108 332.548l15.593-42.483 17.222 2.235-12.747 48.174z"></path><path fill="#f9f9f9" d="M466.599 472.051c-25.458-19.996-43.822-38.49-55.936-51.752-13.376-14.645-27.101-31.637-51.713-54.72-26.386-24.747-37.759-30.677-46.653-27.491-6.129 2.195-16.46 10.563-21.3 22.427-.398.976-.676 1.738-.845 2.201-8.598 23.566 19.306 49.09 26.526 57.234 28.451 32.093 132.101 92.247 144.496 95.958 0 0 11.912 4.059 29.482-7.667 17.571-11.726 116.278-54.118 116.278-54.118s-4.637-37.522-23.937-47.624l-116.398 65.552z" opacity=".18"></path><path fill="#141414" d="m366.15 301.997-22.985 19.084 60.044 27.316 4.899-15.849zM408.108 332.548l15.593-42.483 17.222 2.235-12.747 48.174z" opacity=".1"></path><path d="M786.522 313.64s4.611 129.784 138.034 115.966L786.522 313.64zM541.918 270.752l-10.656 8.839 18.004 22.406 10.654-9.567zM574.648 309.575l-10.656 8.838 18.005 22.407 10.653-9.568zM603.261 343.957l-10.656 8.838 18.004 22.407 10.654-9.567z" opacity=".12"></path><path fill="#fff" d="M684.563 547.477s40.589 26.157 73.962-6.314c33.373-32.471 86.589-97.413 86.589-97.413l59.53-5.606c-33.058 20.969-56.758 41.611-72.609 57.018-5.683 5.524-41.285 40.436-81.629 64.04-5.348 3.129-15.331 8.723-28.412 8.118-18.701-.865-32.025-13.857-37.431-19.843z" opacity=".11"></path><path fill="none" stroke="#e2e2e2" stroke-miterlimit="10" d="M818.705 381.248c-.023-35.871 5.841-83.476 38.469-107.578 38.761-28.632 83.599-.68 129.321-23.852 27.828-14.104 59.983-49.172 72.514-144.421"></path><path fill="#e2e2e2" d="M833.281 392.977c.469-18.1 2.396-36.318 7.564-53.818 2.612-8.721 6.079-17.239 10.738-25.126 4.659-7.87 10.573-15.079 17.715-20.881a72.744 72.744 0 0 1 11.468-7.627c4.069-2.155 8.378-3.846 12.791-5.127 8.847-2.565 18.078-3.361 27.169-3.318 9.11.019 18.15.74 27.152 1.215 8.999.472 17.999.725 26.909-.081 17.861-1.282 35.049-7.925 49.658-18.203l5.385-3.998c1.732-1.413 3.397-2.912 5.1-4.363.837-.742 1.717-1.437 2.519-2.218l2.38-2.373c1.572-1.596 3.206-3.131 4.728-4.776l4.428-5.065 2.211-2.536 2.047-2.674 4.095-5.347c.705-.875 1.328-1.81 1.95-2.746l1.882-2.796c10.093-14.887 18.311-31 25.494-47.52l5.174-12.494c1.661-4.191 3.136-8.456 4.714-12.68l2.329-6.353 2.09-6.437 4.181-12.876 1.702.513-4.091 12.95-2.046 6.476-2.286 6.397c-1.55 4.255-2.997 8.549-4.633 12.774l-5.101 12.602c-7.169 16.642-15.407 32.896-25.568 47.979l-1.896 2.833c-.627.948-1.255 1.895-1.966 2.784l-4.134 5.429-2.067 2.714-2.237 2.581-4.483 5.154c-1.542 1.675-3.2 3.245-4.795 4.872l-2.416 2.42c-.815.797-1.709 1.51-2.561 2.269-1.732 1.485-3.426 3.017-5.19 4.463l-5.49 4.101c-7.477 5.248-15.577 9.653-24.157 12.853-8.55 3.291-17.628 5.183-26.725 5.947-9.112.797-18.237.51-27.279.012-9.047-.503-18.043-1.243-27.018-1.286-8.96-.067-17.939.696-26.487 3.149-4.266 1.226-8.419 2.842-12.348 4.909a70.5 70.5 0 0 0-11.094 7.335c-6.916 5.588-12.672 12.553-17.238 20.216-4.568 7.677-7.984 16.021-10.593 24.594-5.227 17.186-7.295 35.239-7.903 53.23l-1.771-.052z"></path><path fill="#e2e2e2" d="M848.913 404.712c.426-9.439 1.311-18.878 2.904-28.225 1.584-9.343 3.832-18.613 7.099-27.574 3.297-8.936 7.646-17.578 13.439-25.273 5.766-7.695 13.061-14.345 21.471-19.163a63.897 63.897 0 0 1 13.321-5.795c4.641-1.426 9.43-2.302 14.225-2.783 9.614-.955 19.203-.315 28.62.617 9.427.944 18.751 2.189 28.068 2.812 9.307.642 18.627.586 27.749-.787a103.847 103.847 0 0 0 13.53-2.913 112.2 112.2 0 0 0 13.042-4.685c8.509-3.649 16.524-8.42 24.071-13.839 15.049-10.973 27.989-24.689 39.575-39.373 5.784-7.366 11.206-15.025 16.362-22.867 5.105-7.877 9.936-15.935 14.574-24.109 9.26-16.363 17.554-33.277 25.378-50.409l1.325.575a591.338 591.338 0 0 1-24.199 51.216 467.172 467.172 0 0 1-14.328 24.494c-5.09 7.983-10.459 15.8-16.213 23.344-11.465 15.097-24.7 29.038-40.073 40.419-7.732 5.608-15.985 10.577-24.796 14.405-8.795 3.844-18.085 6.618-27.611 8.024-9.54 1.391-19.19 1.391-28.673.693-9.495-.68-18.865-1.978-28.191-2.953-9.316-.968-18.645-1.617-27.825-.746-9.155.864-18.137 3.332-26.131 7.842-8.023 4.452-15.037 10.651-20.677 17.959-5.668 7.302-9.995 15.627-13.364 24.303-6.785 17.411-9.728 36.171-11.229 54.878l-1.443-.087z"></path><path fill="#e2e2e2" d="M865.099 416.51c.33-4.933.783-9.862 1.395-14.779a196.154 196.154 0 0 1 2.449-14.672c2.012-9.722 4.879-19.323 8.988-28.466 4.124-9.114 9.579-17.781 16.739-25.02 7.114-7.247 15.947-12.96 25.733-16.146 4.881-1.6 9.954-2.575 15.037-3.034 5.088-.459 10.184-.382 15.214-.026 10.075.73 19.885 2.594 29.601 4.269 9.713 1.686 19.36 3.321 29.023 3.817 4.828.257 9.644.238 14.431-.134a109.086 109.086 0 0 0 14.243-2.127c4.71-.971 9.325-2.381 13.881-3.946l3.394-1.252c1.131-.418 2.232-.919 3.35-1.374 2.246-.888 4.41-1.975 6.607-2.985 8.704-4.238 16.94-9.457 24.806-15.189 15.759-11.487 29.732-25.387 42.72-40.093 12.874-14.835 24.763-30.579 35.807-46.916 11.128-16.287 21.473-33.126 31.481-50.184a628.808 628.808 0 0 1-29.015 51.796c-5.236 8.414-10.797 16.63-16.518 24.741l-4.375 6.026c-1.455 2.011-3.009 3.951-4.509 5.931-1.505 1.976-3.023 3.943-4.604 5.862-1.571 1.926-3.106 3.883-4.708 5.785-6.36 7.65-13.095 15.01-20.226 21.993-7.127 6.984-14.655 13.599-22.673 19.625-8.025 6.009-16.559 11.408-25.604 15.886-2.287 1.068-4.54 2.208-6.887 3.151-1.168.482-2.317 1.009-3.501 1.454l-3.554 1.331c-4.778 1.665-9.628 3.179-14.601 4.217a115.169 115.169 0 0 1-15.07 2.177c-5.071.37-10.159.364-15.199.071-10.089-.591-19.984-2.251-29.71-4.09-9.729-1.823-19.358-3.783-29.006-4.616-9.621-.826-19.317-.48-28.432 2.28-9.117 2.708-17.449 7.881-24.396 14.49-6.993 6.61-12.508 14.762-16.836 23.485-4.386 8.721-7.552 18.067-10.025 27.585-2.46 9.531-4.179 19.272-5.45 29.077z"></path><path fill="#ffbe55" d="M95.382 766.958c-5.414-4.198-14.408-5.93-20.986-6.25-3.457-.168-3.883.54-5.588-1.97-1.583-2.33-1.627-7.877-2.209-10.679l-4.416-21.285c15.618-9.649 27.323-25.443 32.012-43.192s2.312-37.263-6.502-53.367c-2.81-5.134-7.301-10.479-13.144-10.155-4.372.242-7.873 3.648-10.539 7.121-8.451 11.01-12.876 24.748-14.213 38.564-1.337 13.815.27 27.767 2.939 41.388.254 1.299.515 2.67.082 3.921-.468 1.356-1.657 2.312-2.792 3.188-16.46 12.705-34.176 25.511-42.88 44.395-5.165 11.206-6.713 24.046-4.357 36.158 2.427 12.48 9.285 24.421 20.025 31.224 7.037 4.457 15.316 6.528 23.542 7.84 10.413 1.66 21.184 2.192 31.416-.355a294.403 294.403 0 0 1 2.951 18.774c.61 4.962 1.227 10.016 1.454 15.043.073 1.607-.055 3.173-.055 4.771-.323 3.281-1.605 6.519-3.372 9.285a23.237 23.237 0 0 1-2.694 3.452c-3.041 3.218-6.871 5.6-10.908 7.366-2.874 1.257-5.972 2.025-9.109 2.176a22.597 22.597 0 0 1-4.72-.261l-.406-.068c6.236-3.368 10.522-9.883 10.522-17.468 0-11.007-8.923-19.93-19.929-19.93s-19.929 8.923-19.929 19.93c0 3.336.898 6.433 2.347 9.197l-.115-.036c.282.543.617 1.014.923 1.524.124.194.226.4.357.589 10.443 16.494 33.343 15.59 33.343 15.59 2.789.13 5.748-.467 8.426-1.154 5.985-1.535 11.603-4.535 15.939-8.972 2.069-2.117 3.827-4.528 5.258-7.117 1.173-2.124 2.211-4.348 2.76-6.722.761-3.295.521-6.661.202-9.995-.739-7.733-2.173-15.383-3.701-23.022l-1.083-5.418-1.936-9.68-.098-.489s19.174-5.593 23.169-22.37c-.002.003 7.587-26.361-11.986-41.541zM61.025 647.343c7.824-10.545 24.722-5.865 25.929 7.21 0 0 2.38 18.743-13.942 37.306-2.653 3.617-8.296 9.129-14.874 15.06l-1.963-9.32c-.141-.685-.235-2.425-.342-3.117-1.736-11.169-2.027-27.193-.974-33.399 1.396-8.227 6.166-13.74 6.166-13.74zm-31.66 171.605c-8.158-6.923-14.098-16.888-14.61-27.576-.589-12.276 5.836-23.834 13.534-33.414a120.558 120.558 0 0 1 27.602-25.113l5.37 23.245c.377 1.632.741 3.406.042 4.927-.763 1.658-2.556 2.53-4.159 3.403-11.776 6.414-18.993 19.296-19.234 32.59-.091 5.017.664 10.213 3.336 14.46 2.672 4.247 7.566 7.342 12.554 6.805-2.144.231-5.576-9.031-6.052-10.608a29.12 29.12 0 0 1-.76-13.658c1.783-9.587 9.042-16.165 18.847-17.081 3.525 15.882 7.612 34.743 10.93 51.278l.049.243c-16.046 5.111-34.609 1.395-47.449-9.501zm53.548 6.515-1.377-7.228c-.033-.201-.032-.4-.073-.602l-8.625-40.941c5.488.292 20.847 2.969 24.828 23.536 0 0 3.418 15.473-14.753 25.235zM829.78 806.046V693.179a.914.914 0 0 0-.914-.914h-4.036a.914.914 0 0 0-.914.914v103.696c-5.964-2.966-15.078-2.428-23.664 2.037-11.928 6.202-18.288 17.593-14.207 25.443 4.081 7.85 17.06 9.185 28.987 2.983 9.955-5.176 14.793-13.99 14.748-21.292zM1015.54 259.292v85.382c0 .382.31.692.692.692h3.053c.382 0 .692-.31.692-.692V266.23c4.512 2.244 11.406 1.836 17.902-1.541 9.023-4.692 13.835-13.309 10.747-19.247-3.088-5.938-12.905-6.948-21.928-2.257-7.533 3.916-11.193 10.584-11.158 16.107zM931.381 234.959v.038l-37.856 7.713a.636.636 0 0 0-.509.623v47.715c-2.767-1.376-6.996-1.126-10.98.945-5.535 2.878-8.486 8.163-6.592 11.806 1.894 3.642 7.916 4.262 13.45 1.384 4.619-2.402 7.651-6.492 7.63-9.88V253.11c0-.266.187-.495.448-.548l33.739-6.846c.346-.07.67.194.67.548v35.193c-2.768-1.376-6.996-1.126-10.98.945-5.535 2.878-8.486 8.163-6.592 11.806 1.894 3.642 7.916 4.262 13.45 1.384 4.619-2.402 7.427-6.479 7.132-9.88h.027v-50.564a.635.635 0 0 0-.755-.624l-2.282.435zM1138.684 49.337c-5.009-2.448-8.265-7.172-10.049-12.33-.74-2.139-1.251-4.356-1.577-6.595-.146-1.002-.209-7.785-.273-8.795-.052-.83.021-1.815-.267-2.604-.549-1.501-3.711-2.373-5.188-1.943-1.144.333-1.151 1.807-1.085 2.768.101 1.47.11 8.693.105 10.17l-.03 8.921-.04 11.67-.046 13.447-.048 14.252-.048 14.085-.044 12.945-.037 10.833-.026 7.749-.012 3.693c0 .014-.013.17-.001.176-6.318-3.142-15.972-2.572-25.067 2.158-12.635 6.57-19.372 18.636-15.049 26.951 4.323 8.315 15.251 10.133 27.886 3.564 10.546-5.484 17.467-14.82 17.419-22.555V62.068c15.423-.47 29.72 18.191 29.72 18.191 14.393 25.348-8.95 50.601-8.95 50.601-1.546 4.788 1.616 3.777 1.616 3.777 8.255-4.974 17.845-20.673 17.845-20.673 22.077-36.888-26.754-64.627-26.754-64.627zM112.541 345.361H47.886v75.801c-4.322-2.149-10.925-1.759-17.147 1.476-8.643 4.494-13.252 12.748-10.294 18.436 2.957 5.688 12.362 6.656 21.004 2.162 7.214-3.751 11.949-10.138 11.916-15.429v-68.518h54.433v61.717c-4.322-2.149-10.925-1.759-17.147 1.476-8.643 4.494-13.251 12.748-10.294 18.436 2.957 5.688 12.361 6.656 21.004 2.162 7.214-3.751 11.598-10.117 11.138-15.429h.042v-68.363h58.273v61.873c-4.322-2.149-10.925-1.759-17.147 1.476-8.643 4.494-13.252 12.748-10.294 18.436 2.958 5.688 12.362 6.656 21.004 2.162 7.214-3.751 11.949-10.138 11.916-15.429v-82.447h-63.752zM684.385 171.65a26.99 26.99 0 0 0-.808-2.159c2.447-6.279 1.13-11.333 1.13-11.333a27.14 27.14 0 0 0-.998-2.589c2.27-6.119.998-10.99.998-10.99-3.137-9.793-12.209-17.919-20.937-23.336-7.178-4.455-10.418-5.61-12.539-12.391-.064-.495-.164-1.005-.329-1.455-.035-.096-.1-.178-.159-.262l-.009-.034-.002.015c-.652-.885-2.56-1.116-3.563-.824-.855.249-.811 1.257-.811 2.069 0 .177.005.363.006.543l-.169 80.032c-4.723-2.349-11.941-1.7-18.741 1.836-9.446 4.912-14.483 13.933-11.251 20.149 3.232 6.216 13.51 7.274 22.956 2.362 7.884-4.099 10.951-10.869 10.915-16.651v-46.516c2.228 1.311 2.445 1.573 5.932 3.17 12.484 5.715 27.055 21.002 21.971 34.795-.676 1.835-2.76 5.293-3.674 7.016-2.077 3.918 3.284 2.861 5.433-.301 4.799-7.054 7.22-15.119 4.649-23.146zm-28.054-45.434c13.045 4.281 21.77 9.733 23.747 22.801l.015.314c-4.28-5.872-10.378-10.819-16.322-14.508-5.87-3.643-9.334-5.412-11.59-9.685.961.283 2.179.432 4.15 1.078zm7.117 22.099c-4.588-2.847-9.282-6.376-12.792-10.366 1.313 1.046 2.548.821 5.675 1.847 13.045 4.281 21.77 9.733 23.747 22.801 0 0 .011.272.036.712-4.293-6.085-10.559-11.205-16.666-14.994z"></path><path fill="#fff" d="m748.402 527.286 2.987 24.951 16.946 1.935-16.946 1.934-2.987 24.952-2.987-24.952-16.946-1.934 16.946-1.935zM595.638 302.432l2.987 24.952 16.946 1.934-16.946 1.934-2.987 24.952-2.988-24.952-16.945-1.934 16.945-1.934zM903.878 432.176l-5.61 24.496 15.298 7.541-16.604-3.899-11.234 22.479 5.61-24.496-15.298-7.541 16.604 3.9z"></path><path fill="#fff" d="m374.033 184.613 3.982 20.653 14.263.604-14.032 2.626-1.006 21.01-3.982-20.654-14.263-.604 14.032-2.626z" opacity=".67"></path></svg>